<?xml version="1.0" encoding="UTF-8"?>
<svg xmlns="http://www.w3.org/2000/svg" version="1.1" width="300" height="300" viewBox="0 0 300 300"><rect x="0" y="0" width="300" height="300" fill="#ffffff"/><g transform="scale(12)"><g transform="translate(0,0)"><path fill-rule="evenodd" d="M8 0L8 4L10 4L10 3L11 3L11 4L12 4L12 2L11 2L11 0ZM12 0L12 1L13 1L13 2L15 2L15 3L13 3L13 5L11 5L11 6L10 6L10 7L9 7L9 5L8 5L8 7L9 7L9 8L10 8L10 7L11 7L11 6L12 6L12 8L11 8L11 9L7 9L7 8L4 8L4 9L3 9L3 10L5 10L5 12L6 12L6 13L4 13L4 12L3 12L3 11L2 11L2 8L0 8L0 11L1 11L1 12L2 12L2 16L0 16L0 17L2 17L2 16L3 16L3 17L4 17L4 16L5 16L5 17L8 17L8 18L10 18L10 14L8 14L8 15L9 15L9 17L8 17L8 16L5 16L5 15L4 15L4 16L3 16L3 13L4 13L4 14L6 14L6 15L7 15L7 14L6 14L6 13L7 13L7 12L8 12L8 11L7 11L7 10L11 10L11 11L10 11L10 13L11 13L11 12L12 12L12 13L13 13L13 14L15 14L15 15L14 15L14 16L13 16L13 15L12 15L12 16L11 16L11 17L12 17L12 18L11 18L11 19L8 19L8 21L9 21L9 23L8 23L8 25L9 25L9 23L10 23L10 25L12 25L12 24L13 24L13 25L15 25L15 24L16 24L16 23L17 23L17 25L18 25L18 23L19 23L19 25L21 25L21 23L20 23L20 21L21 21L21 19L22 19L22 25L25 25L25 24L24 24L24 22L25 22L25 19L24 19L24 21L23 21L23 18L25 18L25 16L24 16L24 15L22 15L22 16L21 16L21 15L20 15L20 14L21 14L21 13L25 13L25 12L23 12L23 11L22 11L22 10L21 10L21 9L23 9L23 10L24 10L24 9L25 9L25 8L21 8L21 9L20 9L20 8L19 8L19 9L20 9L20 10L19 10L19 11L20 11L20 10L21 10L21 11L22 11L22 12L21 12L21 13L20 13L20 12L18 12L18 11L16 11L16 10L18 10L18 9L15 9L15 6L14 6L14 5L16 5L16 8L17 8L17 5L16 5L16 4L17 4L17 2L15 2L15 1L17 1L17 0L15 0L15 1L14 1L14 0ZM9 2L9 3L10 3L10 2ZM13 6L13 8L12 8L12 9L11 9L11 10L12 10L12 9L13 9L13 10L14 10L14 9L13 9L13 8L14 8L14 6ZM5 9L5 10L7 10L7 9ZM6 11L6 12L7 12L7 11ZM12 11L12 12L13 12L13 11ZM14 11L14 13L15 13L15 11ZM16 12L16 13L17 13L17 14L20 14L20 13L17 13L17 12ZM0 13L0 14L1 14L1 13ZM17 15L17 16L20 16L20 15ZM12 16L12 17L13 17L13 18L15 18L15 19L14 19L14 21L15 21L15 22L13 22L13 21L12 21L12 20L13 20L13 19L12 19L12 20L11 20L11 21L10 21L10 20L9 20L9 21L10 21L10 23L11 23L11 24L12 24L12 23L13 23L13 24L14 24L14 23L15 23L15 22L17 22L17 23L18 23L18 22L17 22L17 21L16 21L16 17L13 17L13 16ZM23 16L23 17L21 17L21 18L23 18L23 17L24 17L24 16ZM17 17L17 20L20 20L20 17ZM18 18L18 19L19 19L19 18ZM0 0L0 7L7 7L7 0ZM1 1L1 6L6 6L6 1ZM2 2L2 5L5 5L5 2ZM18 0L18 7L25 7L25 0ZM19 1L19 6L24 6L24 1ZM20 2L20 5L23 5L23 2ZM0 18L0 25L7 25L7 18ZM1 19L1 24L6 24L6 19ZM2 20L2 23L5 23L5 20Z" fill="#000000"/></g></g></svg>
