<?xml version="1.0" encoding="UTF-8"?>
<svg xmlns="http://www.w3.org/2000/svg" version="1.1" width="300" height="300" viewBox="0 0 300 300"><rect x="0" y="0" width="300" height="300" fill="#ffffff"/><g transform="scale(12)"><g transform="translate(0,0)"><path fill-rule="evenodd" d="M9 0L9 1L10 1L10 2L8 2L8 3L9 3L9 4L10 4L10 5L9 5L9 6L8 6L8 8L4 8L4 9L3 9L3 8L0 8L0 13L1 13L1 11L4 11L4 12L5 12L5 14L6 14L6 15L7 15L7 16L5 16L5 15L4 15L4 13L2 13L2 15L1 15L1 14L0 14L0 15L1 15L1 16L0 16L0 17L1 17L1 16L2 16L2 15L3 15L3 16L5 16L5 17L7 17L7 16L8 16L8 15L7 15L7 14L6 14L6 13L7 13L7 12L5 12L5 10L4 10L4 9L8 9L8 11L10 11L10 10L11 10L11 6L12 6L12 7L13 7L13 9L12 9L12 11L11 11L11 12L12 12L12 14L13 14L13 15L11 15L11 14L9 14L9 13L8 13L8 14L9 14L9 15L11 15L11 17L12 17L12 16L13 16L13 17L14 17L14 18L12 18L12 19L13 19L13 20L12 20L12 22L15 22L15 24L16 24L16 25L18 25L18 24L19 24L19 25L20 25L20 24L22 24L22 22L23 22L23 21L24 21L24 20L23 20L23 21L22 21L22 22L21 22L21 20L22 20L22 19L21 19L21 18L23 18L23 19L25 19L25 17L22 17L22 15L23 15L23 16L24 16L24 15L25 15L25 12L24 12L24 11L25 11L25 9L24 9L24 10L22 10L22 11L23 11L23 13L24 13L24 14L22 14L22 12L21 12L21 10L20 10L20 11L19 11L19 8L17 8L17 9L18 9L18 10L17 10L17 11L16 11L16 12L17 12L17 13L16 13L16 15L17 15L17 16L16 16L16 18L15 18L15 15L14 15L14 14L13 14L13 13L15 13L15 12L14 12L14 11L15 11L15 9L16 9L16 8L14 8L14 7L15 7L15 6L16 6L16 7L17 7L17 6L16 6L16 5L17 5L17 2L16 2L16 1L17 1L17 0L15 0L15 2L14 2L14 1L13 1L13 0L12 0L12 1L11 1L11 0ZM12 1L12 2L11 2L11 3L12 3L12 2L13 2L13 4L12 4L12 5L13 5L13 4L14 4L14 6L13 6L13 7L14 7L14 6L15 6L15 4L16 4L16 2L15 2L15 3L14 3L14 2L13 2L13 1ZM10 5L10 6L9 6L9 7L10 7L10 6L11 6L11 5ZM9 8L9 10L10 10L10 8ZM22 8L22 9L23 9L23 8ZM2 9L2 10L3 10L3 9ZM6 10L6 11L7 11L7 10ZM13 10L13 11L14 11L14 10ZM17 11L17 12L19 12L19 14L18 14L18 13L17 13L17 15L19 15L19 14L21 14L21 15L22 15L22 14L21 14L21 12L19 12L19 11ZM8 17L8 21L11 21L11 20L10 20L10 19L9 19L9 17ZM17 17L17 20L20 20L20 17ZM14 18L14 19L15 19L15 20L14 20L14 21L16 21L16 19L15 19L15 18ZM18 18L18 19L19 19L19 18ZM17 21L17 22L16 22L16 23L17 23L17 24L18 24L18 23L19 23L19 24L20 24L20 23L19 23L19 21ZM8 22L8 25L11 25L11 24L12 24L12 25L14 25L14 23L13 23L13 24L12 24L12 23L11 23L11 22L10 22L10 23L9 23L9 22ZM24 22L24 23L23 23L23 25L25 25L25 24L24 24L24 23L25 23L25 22ZM0 0L0 7L7 7L7 0ZM1 1L1 6L6 6L6 1ZM2 2L2 5L5 5L5 2ZM18 0L18 7L25 7L25 0ZM19 1L19 6L24 6L24 1ZM20 2L20 5L23 5L23 2ZM0 18L0 25L7 25L7 18ZM1 19L1 24L6 24L6 19ZM2 20L2 23L5 23L5 20Z" fill="#000000"/></g></g></svg>
