<svg id="Layer_1" data-name="Layer 1" xmlns="http://www.w3.org/2000/svg" width="300" height="222.12" viewBox="0 0 300 222.12"><defs><style>.cls-1{fill:#152d79;}.cls-2{fill:#fff;}</style></defs><title>Artboard 29</title><polygon class="cls-1" points="300 0 300 187.41 0 222.12 0 0 300 0"/><polygon class="cls-2" points="146.15 0 146.15 10.01 0 92.03 0 0 146.15 0"/><path class="cls-2" d="M36.41,130.9a30.21,30.21,0,0,1-5.54.61c-6,0-7.34-3.65-7.34-10.27,0-6.79,1.31-10.38,7.34-10.38a29.46,29.46,0,0,1,5.54.64l-.09,1.89a35.75,35.75,0,0,0-5.22-.52c-4.47,0-5.25,2.67-5.25,8.38s.73,8.27,5.31,8.27a31.77,31.77,0,0,0,5.16-.52Z"/><path class="cls-2" d="M39.57,116.72h2.15v2A16.37,16.37,0,0,1,47,116.4v2.2a21.05,21.05,0,0,0-5.28,2v10.65H39.57Z"/><path class="cls-2" d="M60,129.34l.06,1.71a50.6,50.6,0,0,1-5.66.46c-4.32,0-5.74-2.52-5.74-7.45,0-5.51,2.38-7.63,6.06-7.63,3.86,0,5.83,2,5.83,6.79l-.12,1.65H50.88c0,3.1,1,4.73,3.8,4.73C56.85,129.6,60,129.34,60,129.34Zm-1.62-6.21c0-3.6-1.1-4.87-3.66-4.87s-3.86,1.36-3.89,4.87Z"/><path class="cls-2" d="M74.19,128.53c.06.84.75,1.16,1.68,1.28l-.09,1.71a4.44,4.44,0,0,1-3.45-1.16,14.83,14.83,0,0,1-5.22,1.16c-2.64,0-4.09-1.51-4.09-4.44s1.45-4,4.44-4.29l4.55-.44V121.1c0-2-.87-2.76-2.61-2.76-2,0-5.48.38-5.48.38l-.09-1.65a35.13,35.13,0,0,1,5.69-.64c3.28,0,4.67,1.51,4.67,4.67Zm-6.47-4.12c-1.77.17-2.47,1-2.47,2.61s.73,2.67,2.2,2.67a15.38,15.38,0,0,0,4.55-.9V124Z"/><path class="cls-2" d="M81.38,118.61v6.93c0,3.16.2,4.06,2.09,4.06.81,0,2.58-.17,2.58-.17l.15,1.8a25.41,25.41,0,0,1-3,.32c-3,0-4-1.13-4-5.31v-7.63H77.18v-1.89h2.06v-4.44h2.15v4.44H86v1.89Z"/><path class="cls-2" d="M99.37,129.34l.06,1.71a50.6,50.6,0,0,1-5.66.46c-4.32,0-5.74-2.52-5.74-7.45,0-5.51,2.38-7.63,6.06-7.63,3.86,0,5.83,2,5.83,6.79l-.12,1.65H90.23c0,3.1,1,4.73,3.8,4.73C96.2,129.6,99.37,129.34,99.37,129.34Zm-1.62-6.21c0-3.6-1.1-4.87-3.66-4.87s-3.86,1.36-3.89,4.87Z"/><path class="cls-2" d="M109,133.66c0-1.68.78-2.47,2.29-3.6a2.36,2.36,0,0,1-.81-2,9.34,9.34,0,0,1,1-2.29c-1.22-.55-2.29-1.71-2.29-4.38,0-3.57,2.2-5,5.42-5a15,15,0,0,1,3,.38l4.29-.12v1.86l-2.76-.06a3.77,3.77,0,0,1,1,2.9c0,3.77-1.89,4.9-5.6,4.9a12.21,12.21,0,0,1-1.42-.12,8.64,8.64,0,0,0-.52,1.65c0,1.16.23,1.33,3.51,1.33,4.12,0,5.6.81,5.6,4.26,0,3.28-2.35,4.61-6.44,4.61C110.7,138,109,137,109,133.66Zm3.77-2.73c-1.22.9-1.62,1.42-1.62,2.55,0,2,.84,2.73,4.12,2.73,2.9,0,4.21-.78,4.21-2.7,0-2.2-.93-2.44-3.57-2.44C114.94,131.08,112.82,130.93,112.82,130.93Zm5.16-9.54c0-2.29-.9-3.19-3.34-3.19-2.26,0-3.25.9-3.25,3.19s1,3.16,3.25,3.16C117.08,124.55,118,123.68,118,121.39Z"/><path class="cls-2" d="M124.77,110.4h2.18v20.83h-2.18Z"/><path class="cls-2" d="M143.07,123.8c0,5.28-1.31,7.72-6.21,7.72s-6.21-2.44-6.21-7.72c0-5,1.62-7.37,6.21-7.37S143.07,118.81,143.07,123.8Zm-2.23,0c0-4-.87-5.48-4-5.48s-4,1.45-4,5.48.55,5.83,4,5.83S140.83,127.92,140.83,123.8Z"/><path class="cls-2" d="M158.29,123.74c0,5.77-1.57,7.77-6.85,7.77-1.74,0-4.84-.32-4.84-.32V110.4h2.15v7a12,12,0,0,1,4.26-1C157,116.43,158.29,118.52,158.29,123.74Zm-2.2,0c0-3.74-.75-5.37-3.31-5.37a12.17,12.17,0,0,0-4,.84v10.21s1.89.15,2.67.15C155.39,129.57,156.09,127.8,156.09,123.74Z"/><path class="cls-2" d="M172.1,128.53c.06.84.75,1.16,1.68,1.28l-.09,1.71a4.44,4.44,0,0,1-3.45-1.16,14.83,14.83,0,0,1-5.22,1.16c-2.64,0-4.09-1.51-4.09-4.44s1.45-4,4.44-4.29l4.55-.44V121.1c0-2-.87-2.76-2.61-2.76-2,0-5.48.38-5.48.38l-.09-1.65a35.13,35.13,0,0,1,5.69-.64c3.28,0,4.67,1.51,4.67,4.67Zm-6.47-4.12c-1.77.17-2.47,1-2.47,2.61s.73,2.67,2.2,2.67a15.38,15.38,0,0,0,4.55-.9V124Z"/><path class="cls-2" d="M176.56,110.4h2.18v20.83h-2.18Z"/><path class="cls-2" d="M189.46,110.92h2.18v2.52h-2.18Zm0,5.8h2.18v14.5h-2.18Z"/><path class="cls-2" d="M195.82,131.22v-14.5H198v1a9.74,9.74,0,0,1,4.23-1.31c1.94,0,3,.44,3.77,1.48a12.07,12.07,0,0,1,5.16-1.48c3.95,0,4.9,1.89,4.9,7.14v7.66h-2.18v-7.6c0-3.83-.44-5.25-3-5.25a9.59,9.59,0,0,0-4.09,1.07,16.46,16.46,0,0,1,.38,4.23v7.54h-2.18v-7.48c0-4-.41-5.37-3-5.37a8.68,8.68,0,0,0-3.89,1.07v11.78Z"/><path class="cls-2" d="M220.06,116.72h2.15v1a9.86,9.86,0,0,1,4.35-1.33c3.66,0,5.25,2.23,5.25,7.37,0,5.69-1.86,7.72-6.32,7.72a18.85,18.85,0,0,1-3.25-.32v6.47h-2.18Zm2.18,2.81v9.78a21.71,21.71,0,0,0,3.13.32c3.19,0,4.24-1.65,4.24-5.83,0-4-1.25-5.42-3.36-5.42A9.45,9.45,0,0,0,222.23,119.53Z"/><path class="cls-2" d="M245.58,128.53c.06.84.75,1.16,1.68,1.28l-.09,1.71a4.44,4.44,0,0,1-3.45-1.16,14.83,14.83,0,0,1-5.22,1.16c-2.64,0-4.09-1.51-4.09-4.44s1.45-4,4.44-4.29l4.55-.44V121.1c0-2-.87-2.76-2.61-2.76-2,0-5.48.38-5.48.38l-.09-1.65a35.13,35.13,0,0,1,5.69-.64c3.28,0,4.67,1.51,4.67,4.67Zm-6.47-4.12c-1.77.17-2.47,1-2.47,2.61s.73,2.67,2.2,2.67a15.38,15.38,0,0,0,4.55-.9V124Z"/><path class="cls-2" d="M259.24,116.87l-.09,1.77s-2.32-.26-3.42-.26c-3.34,0-4.24,1.45-4.24,5.34,0,4.29.67,5.86,4.26,5.86,1.1,0,3.42-.26,3.42-.26l.09,1.8a38.48,38.48,0,0,1-4,.41c-4.61,0-6-2.12-6-7.8,0-5.25,1.71-7.28,6-7.28A33.67,33.67,0,0,1,259.24,116.87Z"/><path class="cls-2" d="M265.42,118.61v6.93c0,3.16.2,4.06,2.09,4.06.81,0,2.58-.17,2.58-.17l.15,1.8a25.41,25.41,0,0,1-3,.32c-3,0-4-1.13-4-5.31v-7.63h-2.06v-1.89h2.06v-4.44h2.15v4.44H270v1.89Z"/><path class="cls-2" d="M272.55,127.92h2.38v3.31h-2.38Z"/><path class="cls-2" d="M35.54,148.1s-4-.49-5.71-.49c-2.84,0-4.35,1-4.35,3.28,0,2.61,1.39,3,4.9,3.83,4,.9,5.77,1.89,5.77,5.4,0,4.44-2.44,6.18-6.41,6.18a52.78,52.78,0,0,1-6.35-.64l.23-1.86s3.95.52,6,.52c2.84,0,4.29-1.25,4.29-4,0-2.26-1.19-2.9-4.47-3.54-4.15-.9-6.24-1.89-6.24-5.71s2.55-5.4,6.47-5.4a49.94,49.94,0,0,1,6.06.58Z"/><path class="cls-2" d="M42.26,153.41v6.93c0,3.16.2,4.06,2.09,4.06.81,0,2.58-.17,2.58-.17l.15,1.8a25.41,25.41,0,0,1-3,.32c-3,0-4-1.13-4-5.31v-7.63H38.06v-1.89h2.06v-4.44h2.15v4.44h4.61v1.89Z"/><path class="cls-2" d="M59.78,163.33c.06.84.75,1.16,1.68,1.28l-.09,1.71a4.44,4.44,0,0,1-3.45-1.16,14.83,14.83,0,0,1-5.22,1.16c-2.64,0-4.09-1.51-4.09-4.44s1.45-4,4.44-4.29l4.55-.44V155.9c0-2-.87-2.76-2.61-2.76-2,0-5.48.38-5.48.38l-.09-1.65a35.13,35.13,0,0,1,5.69-.64c3.28,0,4.67,1.51,4.67,4.67Zm-6.47-4.12c-1.77.17-2.47,1-2.47,2.61s.73,2.67,2.2,2.67a15.38,15.38,0,0,0,4.55-.9V158.8Z"/><path class="cls-2" d="M64.07,151.52h2.15v2a16.37,16.37,0,0,1,5.31-2.29v2.2a21.05,21.05,0,0,0-5.28,2V166H64.07Z"/><path class="cls-2" d="M77,153.41v6.93c0,3.16.2,4.06,2.09,4.06.81,0,2.58-.17,2.58-.17l.15,1.8a25.41,25.41,0,0,1-3,.32c-3,0-4-1.13-4-5.31v-7.63H72.8v-1.89h2.06v-4.44H77v4.44h4.61v1.89Z"/><path class="cls-2" d="M93.56,153.41v6.93c0,3.16.2,4.06,2.09,4.06.81,0,2.58-.17,2.58-.17l.15,1.8a25.41,25.41,0,0,1-3,.32c-3,0-4-1.13-4-5.31v-7.63H89.36v-1.89h2.06v-4.44h2.15v4.44h4.61v1.89Z"/><path class="cls-2" d="M112.62,158.6c0,5.28-1.31,7.72-6.21,7.72s-6.21-2.44-6.21-7.72c0-5,1.62-7.37,6.21-7.37S112.62,153.61,112.62,158.6Zm-2.23,0c0-4-.87-5.48-4-5.48s-4,1.45-4,5.48.55,5.83,4,5.83S110.39,162.72,110.39,158.6Z"/><path class="cls-2" d="M127.29,166h-2.15v-1a10.4,10.4,0,0,1-4.41,1.28c-2.84,0-5.22-1.16-5.22-7.43,0-5.1,1.65-7.66,6.06-7.66a24.32,24.32,0,0,1,3.57.38V145.2h2.15Zm-2.15-2.73v-9.83a24.63,24.63,0,0,0-3.45-.35c-3,0-3.95,2-3.95,5.77,0,4.7,1.54,5.48,3.25,5.48A10.54,10.54,0,0,0,125.15,163.3Z"/><path class="cls-2" d="M141.73,163.33c.06.84.75,1.16,1.68,1.28l-.09,1.71a4.44,4.44,0,0,1-3.45-1.16,14.83,14.83,0,0,1-5.22,1.16c-2.64,0-4.09-1.51-4.09-4.44s1.45-4,4.44-4.29l4.55-.44V155.9c0-2-.87-2.76-2.61-2.76-2,0-5.48.38-5.48.38l-.09-1.65a35.13,35.13,0,0,1,5.69-.64c3.28,0,4.67,1.51,4.67,4.67Zm-6.47-4.12c-1.77.17-2.47,1-2.47,2.61s.73,2.67,2.2,2.67a15.38,15.38,0,0,0,4.55-.9V158.8Z"/><path class="cls-2" d="M146.69,151.52l3.63,12.62h1l3.65-12.62h2.18l-6,20.94H148.9l1.89-6.44h-2.15l-4.12-14.5Z"/><path class="cls-2" d="M158.7,162.72h2.38V166H158.7Z"/></svg>