<svg width="29" height="28" viewBox="0 0 29 28" fill="none" xmlns="http://www.w3.org/2000/svg">
<path fill-rule="evenodd" clip-rule="evenodd" d="M26.04 1.88978C26.925 1.56578 27.623 1.17778 28.119 0.731782C28.686 1.27478 29 1.87178 29 2.49978C29 3.69778 27.856 4.78678 25.99 5.59278C26.0442 6.67567 25.8777 7.75828 25.5006 8.77484C25.1236 9.79141 24.5438 10.7207 23.7965 11.5063C23.0492 12.2919 22.1501 12.9174 21.1536 13.3448C20.1572 13.7723 19.0842 13.9927 18 13.9927C16.9158 13.9927 15.8428 13.7723 14.8464 13.3448C13.8499 12.9174 12.9508 12.2919 12.2035 11.5063C11.4562 10.7207 10.8764 9.79141 10.4994 8.77484C10.1223 7.75828 9.9558 6.67567 10.01 5.59278C8.144 4.78678 7 3.69778 7 2.49978C7 1.84978 7.336 1.23278 7.941 0.675781L8.054 0.765781C8.598 1.18678 9.342 1.56778 10.224 1.88878C11.995 2.53578 14.483 2.99978 17.474 2.99978C21.482 2.99978 24.243 2.54478 26.04 1.88978ZM12.006 6.27378C12.0751 7.81709 12.7368 9.27429 13.8533 10.342C14.9698 11.4096 16.4551 12.0055 18 12.0055C19.5449 12.0055 21.0302 11.4096 22.1467 10.342C23.2632 9.27429 23.9249 7.81709 23.994 6.27378C22.27 6.73378 20.21 6.99978 18 6.99978C15.79 6.99978 13.73 6.73278 12.006 6.27378ZM0 27.9998H21V16.4998L19 17.9998V21.8968C18.6722 21.9723 18.3363 22.0069 18 21.9998C17.525 21.9998 17.205 21.9498 17 21.8968V18.2218L12.353 14.6078C6.52 15.7278 0 18.3378 0 21.9998V27.9998ZM7 25.9998H15V21.1798L8.475 22.2678L10.351 17.1098C9.21446 17.4021 8.09562 17.7593 7 18.1798V25.9998ZM2 25.9998H5V19.0788L4.926 19.1178C3.862 19.6818 3.084 20.2568 2.594 20.7978C2.114 21.3298 2 21.7228 2 21.9998V25.9998Z" fill="#F34D10"/>
</svg>
