<svg width="34" height="30" viewBox="0 0 34 30" fill="none" xmlns="http://www.w3.org/2000/svg">
<path d="M17 6.66667V0H0.333374V30H33.6667V6.66667H17ZM7.00004 26.6667H3.66671V23.3333H7.00004V26.6667ZM7.00004 20H3.66671V16.6667H7.00004V20ZM7.00004 13.3333H3.66671V10H7.00004V13.3333ZM7.00004 6.66667H3.66671V3.33333H7.00004V6.66667ZM13.6667 26.6667H10.3334V23.3333H13.6667V26.6667ZM13.6667 20H10.3334V16.6667H13.6667V20ZM13.6667 13.3333H10.3334V10H13.6667V13.3333ZM13.6667 6.66667H10.3334V3.33333H13.6667V6.66667ZM30.3334 26.6667H17V23.3333H20.3334V20H17V16.6667H20.3334V13.3333H17V10H30.3334V26.6667ZM27 13.3333H23.6667V16.6667H27V13.3333ZM27 20H23.6667V23.3333H27V20Z" fill="#F34D10"/>
</svg>
