<svg width="36" height="36" viewBox="0 0 36 36" fill="none" xmlns="http://www.w3.org/2000/svg">
<path d="M31.93 1.54725C31.9937 1.48352 32.041 1.40547 32.0681 1.31968C32.0952 1.2339 32.1012 1.14288 32.0856 1.05429C32.0701 0.9657 32.0334 0.882136 31.9787 0.810632C31.924 0.739128 31.8528 0.681777 31.7712 0.643406C30.5128 0.0509118 29.1013 -0.138633 27.7306 0.100806C26.3598 0.340244 25.097 0.99692 24.1156 1.98065C22.2034 3.89949 21.5356 6.91305 22.4275 9.43259L9.43271 22.3884C8.71079 22.1347 7.95036 22.0071 7.1849 22.0112C5.25466 22.0112 3.38298 22.7769 2.05074 24.113C1.0728 25.0839 0.411814 26.3266 0.154394 27.6783C-0.103026 29.0301 0.0551256 30.4279 0.608126 31.6885C0.644374 31.7729 0.700905 31.8471 0.772729 31.9045C0.844552 31.962 0.929458 32.0009 1.01995 32.0179C1.11044 32.0349 1.20373 32.0294 1.29159 32.0019C1.37944 31.9744 1.45916 31.9258 1.52369 31.8603L5.45512 27.9204C5.71414 27.6599 6.13194 27.6251 6.34816 27.8441L8.04529 29.6147C8.29192 29.8628 8.28065 30.2457 8.02051 30.5073L4.10373 34.4371C4.04007 34.5007 3.9927 34.5787 3.96561 34.6644C3.93852 34.7501 3.93251 34.841 3.94808 34.9295C3.96364 35.0181 4.00034 35.1015 4.05507 35.1729C4.10979 35.2443 4.18094 35.3016 4.26252 35.3398C5.17386 35.7733 6.17065 35.9988 7.1804 36C8.95072 36 10.6321 35.2904 11.9181 34.0014C13.8304 32.0837 14.4982 29.0702 13.6051 26.5506L26.5999 13.5936C27.3222 13.8473 28.083 13.9749 28.8488 13.9709C30.7791 13.9709 32.6508 13.2052 33.983 11.869C34.9609 10.8982 35.6219 9.65551 35.8793 8.30374C36.1368 6.95198 35.9786 5.55421 35.4256 4.29359C35.3894 4.2092 35.3328 4.135 35.261 4.07756C35.1892 4.02011 35.1043 3.98118 35.0138 3.9642C34.9233 3.94722 34.83 3.95272 34.7422 3.98021C34.6543 4.00769 34.5746 4.05632 34.51 4.1218L30.5786 8.06167C30.4571 8.17873 30.2942 8.24323 30.1253 8.24113C29.9563 8.23903 29.7951 8.17049 29.6766 8.05044L27.9885 6.36738C27.9282 6.30974 27.8803 6.24057 27.8475 6.16402C27.8147 6.08747 27.7978 6.00511 27.7977 5.92187C27.7976 5.83864 27.8143 5.75623 27.8469 5.6796C27.8795 5.60297 27.9272 5.53368 27.9873 5.47589L31.93 1.54725V1.54725ZM27.1911 7.16119L28.8792 8.84425C29.5538 9.52017 30.7093 9.52354 31.3771 8.85435L34.6767 5.54887C34.9381 6.52006 34.9379 7.54282 34.6761 8.5139C34.4143 9.48498 33.9002 10.37 33.1857 11.0797C32.0629 12.2059 30.484 12.8504 28.85 12.8504C28.0808 12.8504 27.3522 12.7066 26.6844 12.4237C26.5811 12.3799 26.4671 12.3678 26.357 12.389C26.2468 12.4102 26.1455 12.4637 26.0661 12.5427L12.5522 26.0162C12.4731 26.095 12.4194 26.1955 12.3979 26.3049C12.3764 26.4143 12.3882 26.5276 12.4317 26.6303C13.336 28.7749 12.7853 31.5425 11.122 33.211C10.4053 33.9358 9.5029 34.4507 8.51307 34.6998C7.52325 34.9488 6.48387 34.9224 5.50805 34.6235L8.82008 31.3C9.51943 30.5983 9.53069 29.5103 8.85274 28.8321L7.15675 27.0615C6.50245 26.4047 5.33912 26.4451 4.65892 27.1311L1.35927 30.4366C1.0979 29.4654 1.09813 28.4426 1.35992 27.4716C1.62171 26.5005 2.1358 25.6154 2.85031 24.9057C3.97309 23.7796 5.55197 23.1351 7.18603 23.1351C7.95519 23.1351 8.68382 23.2788 9.35163 23.5618C9.4548 23.6059 9.56887 23.6181 9.6791 23.5969C9.78932 23.5757 9.89062 23.522 9.96989 23.4427L23.4838 9.96928C23.5629 9.89048 23.6166 9.78994 23.6381 9.68054C23.6596 9.57113 23.6478 9.45782 23.6043 9.35512C22.7 7.21059 23.2507 4.4418 24.914 2.77334C25.6305 2.04925 26.5323 1.53475 27.5214 1.28573C28.5105 1.03671 29.5492 1.0627 30.5246 1.36087L27.1911 4.68544C27.0263 4.847 26.8954 5.03966 26.806 5.25219C26.7166 5.46472 26.6706 5.69286 26.6706 5.92332C26.6706 6.15377 26.7166 6.38191 26.806 6.59444C26.8954 6.80697 27.0263 6.99964 27.1911 7.16119V7.16119Z" fill="white"/>
<path d="M32.8944 34.4369C32.7692 34.557 32.6021 34.6239 32.4283 34.6235C32.2546 34.623 32.0878 34.5553 31.9631 34.4346L20.6677 23.2068C20.5601 23.1108 20.4196 23.0596 20.2753 23.0638C20.131 23.068 19.9937 23.1271 19.8918 23.2292C19.7899 23.3312 19.7312 23.4683 19.7276 23.6122C19.724 23.7561 19.7759 23.8959 19.8727 24.0028L31.1669 35.2285C31.5048 35.5664 31.953 35.7528 32.4305 35.7528C32.908 35.7528 33.3562 35.5664 33.7008 35.2206L35.3101 33.5443C35.4746 33.3824 35.6052 33.1895 35.6943 32.9769C35.7834 32.7642 35.8293 32.5361 35.8291 32.3056C35.829 32.0751 35.783 31.847 35.6937 31.6344C35.6044 31.4219 35.4736 31.2291 35.3089 31.0674L24.0473 19.8395C23.9411 19.7373 23.7989 19.6807 23.6513 19.682C23.5036 19.6832 23.3624 19.7423 23.258 19.8464C23.1536 19.9504 23.0944 20.0913 23.0931 20.2384C23.0918 20.3856 23.1486 20.5275 23.2511 20.6333L34.5116 31.8601C34.7695 32.1183 34.7695 32.4933 34.5037 32.7606L32.8944 34.4369V34.4369ZM6.59186 3.5591L3.21338 0.190736C3.10778 0.0854906 2.96459 0.0263672 2.81528 0.0263672C2.66597 0.0263672 2.52277 0.0854906 2.41718 0.190736L0.164862 2.43631C0.059301 2.54159 0 2.68436 0 2.83322C0 2.98208 0.059301 3.12485 0.164862 3.23012L3.54334 6.59849C3.64908 6.70333 3.79208 6.76228 3.94121 6.76249C4.09033 6.7627 4.23351 6.70416 4.33954 6.59961L5.06704 5.87316L13.6777 14.458C13.7295 14.5117 13.7916 14.5545 13.8602 14.5841C13.9289 14.6136 14.0028 14.6292 14.0775 14.6299C14.1523 14.6307 14.2265 14.6166 14.2957 14.5884C14.3649 14.5603 14.4279 14.5187 14.4808 14.4661C14.5337 14.4134 14.5756 14.3508 14.604 14.2819C14.6325 14.2129 14.6468 14.139 14.6463 14.0645C14.6457 13.9899 14.6303 13.9162 14.6009 13.8477C14.5715 13.7792 14.5287 13.7172 14.475 13.6653L5.86323 5.07935L6.59073 4.35403C6.64324 4.30196 6.68493 4.24007 6.71342 4.1719C6.7419 4.10374 6.75661 4.03064 6.75672 3.9568C6.75682 3.88296 6.74232 3.80982 6.71403 3.74157C6.68574 3.67333 6.64422 3.61132 6.59186 3.5591V3.5591ZM3.94088 5.40833L1.35859 2.83378L2.81472 1.38201L5.397 3.95657L3.94088 5.40833Z" fill="white"/>
</svg>
