<svg width="36" height="36" viewBox="0 0 36 36" fill="none" xmlns="http://www.w3.org/2000/svg">
<path d="M12.0001 0L8.00004 4.00511L4.00002 8.01022L8.00004 12.0153L12.0001 16.0204L13.4001 14.6187L14.8001 13.2169L12.2001 10.6135L9.60005 8.01022L12.2001 5.4069L14.8001 2.80358L13.4001 1.40179L12.0001 0ZM24.0001 0L22.6001 1.40179L21.2001 2.80358L23.8001 5.4069L26.4001 8.01022L23.8001 10.6135L21.2001 13.2169L22.6001 14.6187L24.0001 16.0204L28.0002 12.0153L32.0002 8.01022L28.0002 4.00511L24.0001 0ZM35.9542 30.2186L35.1782 27.1506C35.1285 26.9551 35.0398 26.7715 34.9175 26.6112C34.7951 26.4508 34.6416 26.3169 34.4662 26.2175C34.2899 26.1165 34.0953 26.0518 33.8937 26.027C33.6921 26.0023 33.4876 26.018 33.2922 26.0733L24.1881 28.6446L18.0001 26.0332L25.8301 24.0247C26.3647 23.5472 26.7519 22.9267 26.9461 22.2364L26.3321 20.0256L10.0001 22.0281H0V34.0434H10.0001L18.9101 35.9739C19.3945 36.018 19.8823 36.0066 20.3641 35.9399L34.8842 32.0269C35.2651 31.9248 35.591 31.6775 35.7922 31.338C35.8915 31.1709 35.957 30.9859 35.9848 30.7934C36.0126 30.601 36.0022 30.405 35.9542 30.2166V30.2186ZM6.00003 32.0409H2.00001V24.0307H6.00003V32.0409ZM19.8441 34.0074C19.754 34.0309 19.6613 34.043 19.5681 34.0434C19.4908 34.0437 19.4137 34.0357 19.3381 34.0194L10.0001 31.9668V24.0707L24.6581 22.2524L14.0001 26.0332L23.4421 30.5029L24.0761 30.7572L24.7321 30.571L33.3642 28.1339L33.8922 30.2206L19.8441 34.0074Z" fill="white"/>
</svg>
