<svg width="36" height="36" viewBox="0 0 36 36" fill="none" xmlns="http://www.w3.org/2000/svg">
<path d="M4.25091 36.0001H31.7654C31.7714 36.0001 31.7766 35.9956 31.7826 35.9956C32.9033 35.9828 33.9749 35.3906 34.7646 34.3477C35.5543 33.3047 35.9982 31.8953 36 30.4255V0.563764C36 0.430173 35.9595 0.302054 35.8875 0.207591C35.8155 0.113127 35.7178 0.0600586 35.6159 0.0600586C35.514 0.0600586 35.4163 0.113127 35.3443 0.207591C35.2723 0.302054 35.2318 0.430173 35.2318 0.563764V30.4255C35.2318 32.944 33.6696 34.9927 31.7491 34.9927C29.8286 34.9927 28.2655 32.944 28.2655 30.4255V0.563764C28.2655 0.28543 28.0937 0.0600586 27.8814 0.0600586H0.384103C0.171858 0.0600586 0 0.28543 0 0.563764V30.4255C0.00113741 31.9035 0.449365 33.3206 1.24632 34.3657C2.04327 35.4108 3.12385 35.9986 4.25091 36.0001ZM0.768206 1.06747H27.4965V30.4255C27.4965 30.7703 27.5282 31.105 27.5738 31.4341C27.5832 31.4994 27.591 31.5648 27.6021 31.629C27.6554 31.9423 27.7259 32.2454 27.8178 32.5372C27.8342 32.5902 27.8539 32.6398 27.872 32.6916C27.9648 32.9643 28.0722 33.2269 28.1968 33.4748C28.2114 33.503 28.2226 33.5334 28.2372 33.5616C28.3729 33.8207 28.5276 34.0608 28.6934 34.2861C28.7295 34.3346 28.7648 34.3819 28.8026 34.4292C28.9624 34.6321 29.1308 34.8248 29.313 34.9927H4.25091C3.32759 34.9912 2.44241 34.5095 1.78952 33.6533C1.13664 32.7971 0.769343 31.6363 0.768206 30.4255V1.06747Z" fill="white"/>
</svg>
