<svg width="457" height="367" viewBox="0 0 457 367" fill="none" xmlns="http://www.w3.org/2000/svg">
    <rect x="118" y="27" width="339" height="276" fill="#2A337E"/>
    <path d="M189.72 66.0407C190.553 65.746 191.357 65.3789 192.125 64.9434C193.196 64.2834 194.125 63.4164 194.857 62.393C195.589 61.3696 196.109 60.2104 196.387 58.9835C196.565 58.1416 196.636 57.2804 196.597 56.4206C196.507 55.4722 196.321 54.5355 196.041 53.6248C195.522 51.6783 194.959 49.5588 194.35 47.2966L190.246 31.8595L185.286 13.1455C184.843 11.462 184.392 9.75598 183.926 8.01235C183.557 6.26993 182.702 4.66751 181.461 3.39022C180.179 2.08614 178.534 1.19831 176.741 0.842418C174.877 0.521487 172.962 0.695117 171.187 1.34597L121.952 14.318C119.846 14.8796 118.009 16.1749 116.773 17.9706C115.548 19.7388 115.001 21.8894 115.233 24.0282C115.388 25.0943 115.624 26.147 115.939 27.1772C116.217 28.237 116.488 29.2891 116.766 30.3338C117.317 32.4282 117.861 34.505 118.397 36.5643C120.554 44.8315 122.628 52.7455 124.612 60.3213C125.614 64.1091 126.576 67.7968 127.498 71.3843C127.81 73.1448 128.568 74.7959 129.7 76.1793C130.818 77.4911 132.285 78.4582 133.932 78.9676C137.224 80.125 140.493 78.5542 143.612 77.8778L152.631 75.5404L179.77 68.5359L187.158 66.6645L189.082 66.1985C189.517 66.0933 189.743 66.0632 189.743 66.0632C189.743 66.0632 189.532 66.1459 189.104 66.2661L187.195 66.8073L179.837 68.8064L152.781 76.0365L143.762 78.4189L138.982 79.674C137.227 80.1196 135.382 80.0658 133.656 79.5186C131.929 78.9715 130.39 77.9529 129.212 76.5776C128.01 75.1281 127.2 73.3943 126.859 71.5421C125.912 67.9647 124.94 64.2795 123.943 60.4866C121.952 52.9183 119.855 44.9818 117.69 36.7447C117.149 34.6854 116.603 32.6086 116.052 30.5142C115.771 29.472 115.493 28.4198 115.218 27.3576C114.884 26.2938 114.633 25.2058 114.466 24.1033C114.217 21.7927 114.806 19.4694 116.127 17.5572C117.465 15.5924 119.466 14.1755 121.764 13.5664L171.006 0.669558C172.882 -0.000347936 174.899 -0.17128 176.861 0.173526C178.777 0.573472 180.529 1.53963 181.889 2.9468C183.201 4.30922 184.104 6.01205 184.497 7.86203C184.948 9.59815 185.399 11.3117 185.835 12.9952C187.586 19.7593 189.217 25.9973 190.705 31.7317C192.193 37.4662 193.531 42.6369 194.711 47.1914C195.297 49.4712 195.843 51.5856 196.349 53.5346C196.631 54.4712 196.822 55.4326 196.92 56.4056C196.953 57.2949 196.867 58.1845 196.665 59.0511C196.367 60.3027 195.819 61.4809 195.053 62.5144C194.287 63.5478 193.319 64.4151 192.208 65.0636C191.636 65.4018 191.026 65.6693 190.389 65.8603C189.946 65.9956 189.72 66.0407 189.72 66.0407Z" fill="#E0E0E0"/>
    <path d="M169.924 46.8006C169.777 46.8669 169.623 46.9197 169.466 46.9585L168.143 47.3342L163.213 48.6946L146.679 53.1438H146.543L146.483 53.0161L145.341 50.3931L137.337 31.2132L137.457 31.2658L133.038 32.3931L131.858 32.6787L131.444 32.7614C131.573 32.7037 131.706 32.6584 131.843 32.6261L133.008 32.2879L137.412 31.0704H137.502V31.153L145.611 50.2954L146.724 52.9484L146.536 52.8507L163.13 48.5067L168.083 47.244L169.421 46.9209C169.585 46.8671 169.754 46.8269 169.924 46.8006Z" fill="#E0E0E0"/>
    <path d="M144.649 48.3337C144.649 48.3337 144.687 48.3337 144.762 48.2886L145.1 48.1834L146.431 47.8076L151.406 46.4398L168.602 41.8177L168.489 41.983C168.233 38.9768 167.955 35.6774 167.662 32.2803C167.52 30.5367 167.369 28.8231 167.234 27.1847L167.437 27.3275L147.145 32.6486L141.132 34.1968L139.509 34.6027L139.088 34.6928C138.99 34.6928 138.945 34.6928 138.938 34.6928L139.08 34.6478L139.494 34.52L141.11 34.0615L147.122 32.4231L167.414 26.9968L167.595 26.9442V27.1321C167.73 28.7705 167.873 30.4841 168.023 32.2277C168.309 35.6248 168.579 38.9016 168.835 41.9379V42.0657H168.707L151.481 46.5751L146.483 47.8527L145.138 48.1834L144.792 48.2661L144.649 48.3337Z" fill="#E0E0E0"/>
    <path d="M154.081 57.7659C154.081 57.7659 153.999 57.5705 153.803 57.2473C153.529 56.7982 153.114 56.4521 152.623 56.2628C152.268 56.1265 151.885 56.0799 151.507 56.1271C151.13 56.1743 150.77 56.3138 150.459 56.5333C150.226 56.7321 150.035 56.9764 149.9 57.2512C149.764 57.5261 149.686 57.8256 149.67 58.1317C149.654 58.4377 149.701 58.7438 149.807 59.0313C149.913 59.3187 150.077 59.5815 150.288 59.8035C150.5 60.0255 150.754 60.2021 151.036 60.3225C151.318 60.4429 151.621 60.5046 151.927 60.5038C152.234 60.5031 152.537 60.4398 152.818 60.318C153.099 60.1961 153.353 60.0182 153.563 59.7951C153.894 59.3884 154.081 58.8838 154.097 58.3596C154.097 57.9838 154.051 57.7734 154.097 57.7659C154.193 57.9488 154.242 58.1529 154.239 58.3596C154.269 58.9259 154.099 59.4847 153.758 59.9379C153.5 60.2839 153.157 60.5576 152.762 60.7327C152.367 60.9077 151.934 60.9783 151.504 60.9375C150.979 60.8932 150.48 60.6876 150.076 60.349C149.672 60.0103 149.383 59.5551 149.248 59.0457C149.113 58.5362 149.139 57.9976 149.322 57.5034C149.505 57.0093 149.837 56.5838 150.271 56.2853C150.621 56.0433 151.027 55.8949 151.451 55.8541C151.874 55.8134 152.301 55.8816 152.691 56.0523C153.211 56.2804 153.636 56.6814 153.894 57.1872C154.003 57.3616 154.068 57.5604 154.081 57.7659Z" fill="#E0E0E0"/>
    <path d="M169.113 53.7901C169.113 53.7901 169.03 53.5872 168.835 53.2715C168.559 52.8242 168.145 52.4787 167.655 52.287C167.267 52.1384 166.846 52.0999 166.437 52.1757C166.029 52.2514 165.65 52.4384 165.341 52.7162C165.032 52.9939 164.806 53.3515 164.688 53.7496C164.569 54.1476 164.563 54.5707 164.67 54.972C164.776 55.3734 164.992 55.7375 165.292 56.0241C165.593 56.3108 165.967 56.5088 166.373 56.5965C166.779 56.6841 167.201 56.6579 167.593 56.5208C167.985 56.3836 168.332 56.1409 168.594 55.8193C168.926 55.4097 169.113 54.9028 169.128 54.3763C169.128 54.0081 169.083 53.7976 169.128 53.7901C169.225 53.97 169.275 54.1719 169.271 54.3763C169.303 54.9428 169.132 55.5023 168.79 55.9546C168.535 56.2949 168.198 56.5651 167.81 56.7399C167.422 56.9147 166.997 56.9884 166.573 56.9542C166.048 56.9095 165.551 56.7036 165.148 56.3647C164.746 56.0259 164.458 55.5706 164.324 55.0616C164.191 54.5526 164.218 54.0148 164.403 53.522C164.588 53.0292 164.92 52.6057 165.355 52.3095C165.707 52.0676 166.114 51.9192 166.539 51.8784C166.964 51.8377 167.392 51.9058 167.783 52.0765C168.304 52.3025 168.73 52.7041 168.985 53.2114C169.074 53.391 169.118 53.5897 169.113 53.7901Z" fill="#E0E0E0"/>
    <path d="M305.657 335.725C288.785 327.457 282.291 308.202 280.164 290.353C279.811 287.346 278.999 284.34 280.014 281.484C281.028 278.628 284.035 276.381 286.883 277.223C289.243 277.922 290.596 280.334 292.144 282.258C294.225 284.83 296.989 286.763 300.118 287.835C302.155 288.519 304.582 288.759 306.289 287.444C308.633 285.64 308.385 282.063 307.919 279.117L305.281 262.65C304.808 259.704 304.334 256.698 304.823 253.759C305.311 250.82 306.935 247.912 309.618 246.694C312.301 245.477 316.021 246.559 317.051 249.355C317.487 250.512 317.434 251.797 317.705 253.007C317.975 254.217 318.749 255.488 319.959 255.653C321.169 255.818 322.214 254.796 322.966 253.797C325.551 250.354 327.024 246.206 328.369 242.095C329.715 237.984 330.985 233.79 333.247 230.122C335.509 226.455 338.929 223.291 343.115 222.396C347.301 221.502 352.202 223.426 353.908 227.402C355.614 231.377 353.878 235.985 351.743 239.787C348.599 245.38 344.663 250.488 340.056 254.954C339.23 255.758 338.328 256.622 338.14 257.772C337.802 259.832 339.966 261.53 342.003 261.846C344.318 262.244 346.663 261.65 349.007 261.56C351.352 261.47 353.99 262.109 355.193 264.153C356.869 266.979 354.832 270.526 352.668 272.977C348.333 277.873 343.191 281.989 337.463 285.144C335.412 286.264 333.24 287.316 331.721 289.105C330.203 290.894 329.564 293.712 330.97 295.629C332.375 297.545 335.156 297.793 337.366 297.019C339.575 296.245 341.417 294.704 343.453 293.554C347.271 291.397 352.547 290.871 355.681 293.975C357.741 296.02 358.379 299.199 357.936 302.077C357.493 304.956 356.11 307.579 354.584 310.044C349.263 318.664 341.898 326.075 332.999 330.779C324.101 335.484 315.525 337.709 305.665 335.725" fill="#F5F5F5"/>
    <path d="M308.527 323.888C309.986 313.758 312.026 303.72 314.638 293.825C315.314 291.189 315.983 288.589 316.644 286.024C317.306 283.468 317.967 280.936 318.764 278.508C320.306 273.826 322.105 269.232 324.152 264.747C326.076 260.455 328.061 256.48 329.939 252.722C331.818 248.964 333.66 245.552 335.463 242.486C338.278 237.632 341.475 233.01 345.023 228.664C346.271 227.161 347.278 225.966 347.977 225.192L348.774 224.313C348.859 224.208 348.954 224.112 349.059 224.027C348.986 224.14 348.906 224.248 348.819 224.35L348.067 225.267C347.406 226.064 346.421 227.244 345.196 228.807C341.721 233.192 338.581 237.832 335.802 242.688C334.028 245.755 332.224 249.205 330.353 252.932C328.481 256.66 326.527 260.681 324.618 264.957C322.593 269.432 320.812 274.013 319.282 278.681C318.493 281.108 317.847 283.619 317.178 286.197C316.509 288.774 315.855 291.36 315.179 293.99C312.574 303.864 310.521 313.875 309.031 323.978" fill="#E0E0E0"/>
    <path d="M318.914 278.463C318.714 278.077 318.553 277.671 318.433 277.253C318.155 276.456 317.787 275.299 317.359 273.863C316.487 270.992 315.427 266.987 314.27 262.59C313.112 258.193 312.015 254.187 311.083 251.316C310.632 249.888 310.256 248.739 309.986 247.942C309.821 247.54 309.7 247.122 309.625 246.694C309.856 247.063 310.045 247.456 310.189 247.867C310.519 248.618 310.94 249.776 311.451 251.189C312.458 254.022 313.638 257.998 314.796 262.425C315.953 266.851 316.945 270.737 317.727 273.758C318.088 275.119 318.396 276.268 318.644 277.185C318.783 277.599 318.874 278.028 318.914 278.463Z" fill="#E0E0E0"/>
    <path d="M355.734 265.551C355.246 265.734 354.743 265.872 354.23 265.964C353.276 266.197 351.886 266.536 350.18 267.002C346.767 267.911 342.093 269.331 337.005 271.12C331.917 272.909 327.392 274.75 324.153 276.171C322.529 276.862 321.229 277.463 320.327 277.869C319.87 278.11 319.392 278.308 318.899 278.463C319.319 278.172 319.764 277.921 320.23 277.711C321.109 277.238 322.387 276.584 323.988 275.84C327.197 274.337 331.721 272.435 336.817 270.632C341.165 269.079 345.59 267.749 350.074 266.648C351.795 266.227 353.201 265.949 354.178 265.784C354.688 265.657 355.209 265.579 355.734 265.551Z" fill="#E0E0E0"/>
    <path d="M308.904 323.121C308.774 322.997 308.663 322.855 308.573 322.7L307.709 321.43C306.957 320.318 305.943 318.687 304.702 316.658C302.207 312.599 298.93 306.887 295.406 300.521C291.881 294.156 288.641 288.421 286.259 284.31L283.35 279.455C283.042 278.929 282.787 278.493 282.599 278.132C282.496 277.981 282.415 277.817 282.358 277.644C282.484 277.774 282.595 277.918 282.689 278.072C282.922 278.418 283.208 278.824 283.546 279.342C284.297 280.447 285.32 282.078 286.552 284.107C289.047 288.173 292.317 293.878 295.849 300.251C299.381 306.624 302.613 312.351 304.996 316.455L307.859 321.31L308.611 322.64C308.729 322.787 308.827 322.949 308.904 323.121Z" fill="#E0E0E0"/>
    <path d="M356.756 299.161C356.616 299.279 356.459 299.376 356.29 299.446L354.899 300.16L349.774 302.738C345.452 304.918 339.507 307.999 332.946 311.396C326.385 314.793 320.41 317.83 316.036 319.919C313.849 320.964 312.075 321.791 310.835 322.339L309.4 322.963C309.238 323.044 309.066 323.105 308.889 323.143C309.032 323.029 309.188 322.933 309.355 322.858L310.745 322.144L315.863 319.566C320.192 317.394 326.137 314.305 332.698 310.908C339.259 307.511 345.234 304.474 349.601 302.385C351.788 301.34 353.569 300.514 354.809 299.965L356.237 299.349C356.401 299.263 356.575 299.2 356.756 299.161Z" fill="#E0E0E0"/>
    <path d="M16.8981 63.6882C16.8981 63.6882 8.5182 65.725 15.1695 83.8678C21.8209 102.011 26.8338 111.202 26.8338 111.202C26.8338 111.202 27.9011 115.358 24.4814 115.569C21.0618 115.779 13.8618 113.72 11.8777 117.621C9.8184 121.671 12.4188 126.046 18.2359 130.307C24.053 134.568 36.4539 144.376 37.5887 145.271C38.7236 146.165 39.648 148.134 37.3482 148.653C35.0484 149.171 18.2961 148.893 18.6418 156.845C18.9875 164.796 37.1303 174.018 39.0919 175.063C41.0534 176.107 41.4443 177.039 41.1436 178.152C40.843 179.264 35.2138 178.64 30.4489 178.753C25.6839 178.866 20.175 179.843 20.7612 184.42C21.3474 188.997 31.4635 199.676 58.4597 205.659L71.1461 207.613L79.4133 197.685C95.7448 175.378 96.301 160.67 93.693 156.845C91.0851 153.019 86.3352 155.928 82.6751 158.987C79.015 162.046 75.2045 166.224 74.2425 165.593C73.2805 164.962 72.9574 164 73.739 161.918C74.5206 159.836 82.0889 140.934 77.0985 134.726C72.1081 128.518 59.7073 139.784 57.633 140.919C55.5586 142.054 54.9724 139.912 55.2204 138.529C55.4684 137.146 58.3169 121.574 59.8801 114.532C61.4434 107.489 60.4964 102.507 56.2801 100.808C52.2142 99.1771 48.1557 105.49 45.4501 107.572C42.7445 109.654 40.8054 105.844 40.8054 105.844C40.8054 105.844 38.5056 95.6298 31.5311 77.6072C24.5566 59.5847 16.7328 63.7333 16.7328 63.7333" fill="#EBEBEB"/>
    <path d="M71.4469 210.687C66.3738 197.437 57.7533 173.725 50.2452 153.41C42.7371 133.095 35.9279 114.719 30.9225 101.439C28.4198 94.818 26.4131 89.4143 24.9776 85.7241C24.2862 83.8753 23.7375 82.4398 23.3693 81.4477C23.1889 80.9667 23.0536 80.5984 22.9559 80.3279C22.8582 80.0573 22.8281 79.9446 22.8281 79.9446C22.8281 79.9446 22.8883 80.0648 22.9935 80.3128L23.4444 81.4176L25.1279 85.664C26.5784 89.3542 28.6528 94.6828 31.1855 101.342C36.2586 114.592 43.1129 132.96 50.621 153.275C58.1291 173.59 66.7045 197.309 71.7099 210.589" fill="#E0E0E0"/>
    <path d="M21.8516 120.912C22.1488 121.003 22.4359 121.124 22.7083 121.273C23.2495 121.521 24.0236 121.904 24.963 122.385C26.857 123.355 29.4724 124.768 32.2833 126.369L39.5133 130.502L41.7079 131.742C41.975 131.875 42.227 132.036 42.4595 132.223C42.1607 132.144 41.873 132.028 41.6027 131.878C41.0616 131.63 40.2874 131.246 39.348 130.75C37.454 129.758 34.8837 128.323 32.0578 126.714L24.8127 122.633L22.6106 121.408C22.3368 121.277 22.0815 121.111 21.8516 120.912Z" fill="#E0E0E0"/>
    <path d="M43.4811 131.517C43.3834 131.464 46.0515 126 49.4335 119.304C52.8156 112.608 55.649 107.226 55.7467 107.279C55.8444 107.332 53.1763 112.795 49.7943 119.492C46.4122 126.188 43.6014 131.562 43.4811 131.517Z" fill="#E0E0E0"/>
    <path d="M53.6045 163.233C53.7752 162.958 53.9797 162.706 54.2133 162.481L55.9719 160.603C57.4751 159.009 59.4968 156.845 61.6537 154.289C63.8107 151.734 65.7047 149.434 67.05 147.728L68.6508 145.707C68.8339 145.448 69.043 145.209 69.2746 144.993C69.1379 145.277 68.9716 145.547 68.7786 145.797C68.4329 146.3 67.9293 147.022 67.2755 147.901C65.9828 149.652 64.1339 152.027 61.9619 154.552C59.7899 157.078 57.7156 159.257 56.1748 160.798C55.4233 161.55 54.7769 162.181 54.326 162.594C54.1071 162.83 53.8654 163.044 53.6045 163.233Z" fill="#E0E0E0"/>
    <path d="M31.9219 157.949C32.2165 157.951 32.5095 157.992 32.7937 158.07L35.1311 158.543C37.0926 158.957 39.8058 159.558 42.797 160.249C45.7882 160.941 48.4939 161.58 50.4404 162.068L52.7477 162.662C53.035 162.721 53.3149 162.811 53.582 162.932C53.2898 162.93 52.9992 162.89 52.7177 162.812L50.3653 162.376C48.3962 161.963 45.683 161.362 42.6918 160.67C39.7006 159.979 37.0025 159.34 35.0484 158.851L32.7411 158.258C32.4566 158.188 32.1815 158.085 31.9219 157.949Z" fill="#E0E0E0"/>
    <path d="M37.3027 187.08C37.6748 187.106 38.0442 187.162 38.4075 187.246L41.4138 187.839C43.939 188.358 47.4263 189.102 51.2593 189.951C55.0923 190.8 58.5795 191.582 61.0822 192.168L64.0885 192.92C64.4578 192.993 64.82 193.099 65.1708 193.236C64.7952 193.219 64.4224 193.164 64.0584 193.07L61.0522 192.476C58.5269 191.958 55.0397 191.214 51.2067 190.365C47.3737 189.515 43.8564 188.681 41.3462 188.117L38.3399 187.366C37.9852 187.307 37.6377 187.211 37.3027 187.08Z" fill="#E0E0E0"/>
    <path d="M64.502 192.875C64.7222 192.538 64.9738 192.224 65.2535 191.935L67.3955 189.47C69.2068 187.381 71.6869 184.495 74.3475 181.203C77.008 177.911 79.3378 174.92 81.0063 172.725L82.9904 170.125C83.214 169.796 83.4654 169.486 83.742 169.2C83.5614 169.556 83.3502 169.896 83.1107 170.215C82.6748 170.861 82.036 171.778 81.2243 172.898C79.6084 175.153 77.3086 178.159 74.6481 181.458C71.9875 184.758 69.4623 187.591 67.5984 189.635C66.6665 190.65 65.8999 191.469 65.3437 192.018C65.0847 192.324 64.8034 192.61 64.502 192.875Z" fill="#E0E0E0"/>
    <path d="M342.078 337.1C342.078 337.213 269.679 337.295 180.393 337.295C91.1076 337.295 18.6943 337.213 18.6943 337.1C18.6943 336.987 91.0775 336.905 180.393 336.905C269.709 336.905 342.078 336.995 342.078 337.1Z" fill="#263238"/>
    <path d="M307.101 27.5304H285.305C283.875 27.5678 282.517 28.1712 281.531 29.2082C280.545 30.2452 280.01 31.6312 280.045 33.0619V37.0151C280.079 38.4459 279.544 39.8318 278.558 40.8688C277.572 41.9058 276.214 42.5092 274.784 42.5466H232.283C230.847 42.5112 229.483 41.9086 228.49 40.8706C227.497 39.8326 226.956 38.4437 226.984 37.0076V33.0168C227.012 31.5877 226.476 30.2052 225.491 29.1695C224.506 28.1338 223.152 27.5286 221.723 27.4853H214.057H194.975C190.423 27.4853 186.057 29.2925 182.837 32.5099C179.617 35.7273 177.806 40.0915 177.802 44.6435L177.749 319.844C177.749 324.393 179.556 328.756 182.772 331.974C185.988 335.192 190.35 337 194.9 337.002L307.138 337.07C309.392 337.072 311.624 336.63 313.706 335.769C315.789 334.908 317.681 333.645 319.275 332.052C320.87 330.459 322.134 328.568 322.997 326.486C323.86 324.404 324.304 322.173 324.304 319.919L324.357 44.7112C324.36 42.4478 323.915 40.2061 323.048 38.1154C322.181 36.0247 320.909 34.1261 319.305 32.5292C317.701 30.9322 315.797 29.6684 313.702 28.8105C311.608 27.9525 309.364 27.5175 307.101 27.5304Z" fill="#F5841F"/>
    <path d="M307.1 27.5304C307.1 27.5304 307.296 27.5304 307.687 27.5304C308.268 27.5294 308.848 27.5721 309.423 27.6582C311.705 27.9458 313.9 28.7143 315.864 29.9129C317.319 30.7666 318.637 31.836 319.772 33.0845C321.161 34.5828 322.268 36.3191 323.041 38.2101C323.933 40.4226 324.37 42.7921 324.326 45.1771C324.326 47.7099 324.326 50.4381 324.326 53.264C324.326 76.1266 324.364 109.203 324.386 150.066C324.409 190.928 324.386 239.607 324.386 293.614V319.333C324.427 321.109 324.207 322.882 323.733 324.594C323.254 326.31 322.514 327.943 321.538 329.434C320.544 330.919 319.342 332.252 317.968 333.395C315.146 335.68 311.68 337.026 308.055 337.243C304.462 337.348 300.885 337.243 297.277 337.288H275.452H230.606H196.087C192.112 337.491 188.181 336.384 184.896 334.139C181.646 331.86 179.262 328.549 178.132 324.744C177.596 322.859 177.355 320.901 177.418 318.942V313.155C177.418 305.459 177.418 297.811 177.418 290.21C177.418 275.028 177.418 260.077 177.418 245.356C177.418 215.948 177.418 187.584 177.418 160.557C177.418 133.531 177.418 107.858 177.418 83.8226C177.418 71.7976 177.418 60.2084 177.418 49.0552C177.418 47.6573 177.418 46.2669 177.418 44.8915C177.418 44.2001 177.478 43.5012 177.516 42.8097C177.553 42.1183 177.688 41.4343 177.861 40.7655C178.481 38.0911 179.719 35.5994 181.476 33.4903C183.183 31.4616 185.329 29.8491 187.753 28.7759C190.177 27.7027 192.814 27.197 195.463 27.2974H210.419H221.136C222.336 27.2334 223.524 27.5633 224.519 28.2369C225.486 28.9174 226.218 29.881 226.615 30.9951C226.945 32.0927 227.062 33.2431 226.961 34.3847V36.1133C226.944 36.66 226.962 37.2072 227.014 37.7517C227.174 38.8248 227.653 39.825 228.389 40.6227C229.073 41.4241 229.99 41.9917 231.012 42.246C231.516 42.3669 232.034 42.42 232.553 42.4039H240.331H262.954H272.927C273.716 42.4039 274.52 42.4039 275.264 42.4039C276.01 42.3106 276.726 42.0539 277.361 41.6523C277.972 41.2651 278.499 40.7598 278.912 40.1662C279.325 39.5725 279.615 38.9024 279.766 38.1951C279.89 37.506 279.935 36.8051 279.901 36.1057C279.901 35.4143 279.901 34.7304 279.901 34.054C279.871 33.3862 279.901 32.7171 279.991 32.0548C280.1 31.4109 280.318 30.7905 280.638 30.221C281.245 29.1432 282.202 28.3053 283.351 27.8461C284.453 27.4988 285.613 27.3761 286.763 27.4853H297.894H304.733H307.07H304.733H297.894H286.763C285.666 27.4853 284.508 27.3726 283.411 27.8536C282.281 28.3071 281.344 29.1385 280.758 30.206C280.454 30.7641 280.243 31.3684 280.134 31.9947C280.053 32.6477 280.026 33.3063 280.052 33.9638C280.052 34.6402 280.052 35.3241 280.052 36.0156C280.081 36.7273 280.035 37.4402 279.916 38.1425C279.762 38.8749 279.463 39.5692 279.037 40.1848C278.611 40.8004 278.067 41.3248 277.436 41.7275C276.772 42.1371 276.025 42.3938 275.249 42.479C274.452 42.5467 273.686 42.479 272.889 42.479H232.553C232.009 42.5004 231.466 42.4473 230.937 42.3212C229.857 42.0566 228.889 41.4567 228.171 40.6076C227.433 39.7605 226.96 38.7151 226.811 37.6014C226.764 37.1068 226.746 36.6099 226.758 36.1133V34.4147C226.851 33.3084 226.737 32.1945 226.42 31.1304C226.046 30.0757 225.353 29.164 224.436 28.5225C223.49 27.8872 222.364 27.576 221.227 27.6356H195.553C192.954 27.5377 190.367 28.0353 187.99 29.0904C185.613 30.1455 183.508 31.7302 181.837 33.7233C180.121 35.7899 178.914 38.2302 178.312 40.8481C178.139 41.502 178.087 42.1784 177.967 42.8473C177.846 43.5162 177.884 44.2001 177.876 44.8915V49.0552C177.876 60.2084 177.876 71.7976 177.876 83.8226C177.876 107.873 177.876 133.539 177.876 160.557V245.356C177.876 260.057 177.876 275.008 177.876 290.21V318.942C177.811 320.856 178.045 322.767 178.568 324.609C179.679 328.312 182.01 331.53 185.182 333.74C188.385 335.913 192.215 336.97 196.079 336.747H207.668H230.599H275.445H297.3C300.9 336.747 304.508 336.807 308.055 336.702C311.583 336.488 314.955 335.174 317.698 332.944C319.037 331.833 320.209 330.535 321.177 329.088C322.125 327.638 322.845 326.052 323.312 324.383C323.771 322.72 323.987 320.998 323.951 319.273C323.951 317.529 323.951 315.801 323.951 314.064C323.951 307.15 323.951 300.313 323.951 293.554C323.951 239.524 324.003 190.853 324.026 150.005C324.048 109.158 324.101 76.0664 324.123 53.2038C324.123 50.3479 324.123 47.6498 324.123 45.117C324.172 42.7514 323.746 40.4001 322.868 38.2026C322.107 36.325 321.015 34.5992 319.644 33.107C316.963 30.1524 313.329 28.2321 309.378 27.6807C308.805 27.592 308.228 27.5393 307.649 27.5229C307.296 27.5529 307.1 27.5304 307.1 27.5304Z" fill="#263238"/>
    <path d="M205.482 55.3233C205.482 55.3909 202.641 55.4811 199.146 55.5037C195.651 55.5262 192.811 55.5037 192.811 55.4285C192.811 55.3533 195.644 55.2707 199.146 55.2406C202.649 55.2105 205.482 55.2481 205.482 55.3233Z" fill="#263238"/>
    <path d="M205.504 58.5625C205.504 58.6376 202.67 58.7203 199.176 58.7504C195.681 58.7804 192.84 58.7504 192.84 58.6677C192.84 58.585 195.673 58.5099 199.168 58.4798C202.663 58.4497 205.504 58.4873 205.504 58.5625Z" fill="#263238"/>
    <path d="M205.534 61.8018C205.534 61.8769 202.7 61.9596 199.198 61.9897C195.696 62.0197 192.862 61.9897 192.862 61.907C192.862 61.8243 195.696 61.7492 199.198 61.7191C202.7 61.6891 205.534 61.7266 205.534 61.8018Z" fill="#263238"/>
    <path d="M247.081 267.52H190.676V323.925H247.081V267.52Z" fill="#F5F5F5"/>
    <path d="M240.421 299.792C235.829 293.381 226.082 288.992 218.16 290.172C211.742 291.127 206.06 294.11 202.948 300.484C202.74 300.9 202.635 301.36 202.642 301.825C202.649 302.29 202.768 302.747 202.99 303.156C203.211 303.566 203.528 303.916 203.913 304.176C204.298 304.437 204.741 304.601 205.203 304.655C215.897 305.931 226.707 305.896 237.393 304.55C239.039 304.339 241 303.881 241.113 301.844C241.123 301.101 240.879 300.377 240.421 299.792Z" fill="#FDAA8C"/>
    <g opacity="0.5">
        <path opacity="0.5" d="M240.422 299.792C235.83 293.381 226.082 288.992 218.161 290.172C211.743 291.127 206.061 294.11 202.949 300.484" fill="white"/>
    </g>
    <path d="M215.064 299.469C215.026 299.469 214.696 299.176 214.26 298.575C213.678 297.78 213.263 296.874 213.042 295.914C212.854 294.959 212.774 293.986 212.802 293.013C212.768 292.612 212.801 292.208 212.9 291.818C213.024 292.201 213.085 292.603 213.08 293.006C213.13 293.951 213.243 294.893 213.418 295.824C213.641 296.739 214.001 297.616 214.485 298.424C214.722 298.747 214.916 299.098 215.064 299.469Z" fill="#F5F5F5"/>
    <path d="M221.866 299.161C221.753 299.161 221.918 297.342 221.678 295.133C221.437 292.923 220.926 291.187 221.024 291.149C222.129 293.668 222.423 296.468 221.866 299.161Z" fill="#F5F5F5"/>
    <path d="M228.9 298.116C228.788 298.071 229.321 296.861 229.449 295.268C229.577 293.675 229.284 292.389 229.396 292.359C229.774 293.29 229.926 294.297 229.84 295.297C229.754 296.298 229.432 297.264 228.9 298.116Z" fill="#F5F5F5"/>
    <g opacity="0.3">
        <path opacity="0.3" d="M220.618 290.473L220.678 290.586L220.618 290.473Z" fill="black"/>
    </g>
    <path d="M247.735 85.1829H190.676V170.719H247.735V85.1829Z" fill="#F5F5F5"/>
    <path d="M247.735 177.167H190.676V262.703H247.735V177.167Z" fill="#F5F5F5"/>
    <path d="M310.227 161.016H253.168V240.877H310.227V161.016Z" fill="#F5F5F5"/>
    <path d="M309.761 246.491H252.702V323.917H309.761V246.491Z" fill="#F5F5F5"/>
    <path d="M310.227 85.1829H253.168V155.83H310.227V85.1829Z" fill="#F5F5F5"/>
    <path d="M228.172 110.759V134.471C228.172 135.508 227.338 136.582 225.804 137.394C223.75 138.359 221.497 138.827 219.228 138.762H219.191C213.592 138.762 210.247 136.552 210.247 134.471V110.714C210.247 108.399 211.953 105.986 213.667 103.596C214.817 102.003 215.095 99.7107 215.17 98.3353C215.17 98.1775 215.17 98.0347 215.17 97.8994H215.012C214.683 97.9244 214.358 97.8182 214.107 97.6042C213.857 97.3901 213.701 97.0856 213.674 96.7571V95.7575C213.699 95.427 213.854 95.1199 214.105 94.903C214.355 94.6862 214.681 94.5773 215.012 94.6001H223.422C223.672 94.5929 223.919 94.6543 224.136 94.7775C224.353 94.9007 224.533 95.0811 224.655 95.299C224.724 95.4419 224.76 95.5987 224.76 95.7575V96.7571C224.731 97.0848 224.575 97.3882 224.325 97.6018C224.074 97.8155 223.75 97.9224 223.422 97.8994H223.227C223.227 98.0347 223.227 98.1775 223.227 98.3353C223.279 99.6882 223.557 101.98 224.73 103.596C226.443 105.986 228.142 108.399 228.149 110.714L228.172 110.759Z" fill="#FAFAFA"/>
    <path d="M228.171 110.759V110.518C228.151 110.281 228.118 110.045 228.073 109.812C227.872 108.915 227.538 108.054 227.081 107.256C226.348 105.988 225.537 104.765 224.654 103.596C223.62 101.888 223.098 99.9183 223.151 97.9219V97.7866H223.226C223.522 97.8315 223.824 97.7648 224.074 97.5996C224.324 97.4344 224.504 97.1824 224.579 96.8923C224.579 96.5916 224.579 96.2234 224.579 95.8852C224.597 95.73 224.575 95.5728 224.516 95.4283C224.457 95.2837 224.362 95.1564 224.24 95.0584C223.984 94.8521 223.66 94.7478 223.331 94.7653H219.941H215.101C214.913 94.7487 214.723 94.7722 214.544 94.8344C214.365 94.8966 214.202 94.996 214.064 95.1261C213.939 95.257 213.856 95.4216 213.824 95.5996C213.812 95.8048 213.812 96.0106 213.824 96.2159C213.824 96.4263 213.824 96.6743 213.824 96.8472C213.848 97.0306 213.929 97.2017 214.057 97.3357C214.197 97.4768 214.367 97.5845 214.554 97.6509C214.741 97.7172 214.941 97.7405 215.139 97.719H215.312V97.9069C215.303 98.877 215.197 99.8438 214.996 100.793C214.801 101.789 214.416 102.738 213.861 103.589C212.597 105.196 211.553 106.966 210.757 108.85C210.588 109.336 210.477 109.84 210.427 110.353C210.427 110.856 210.427 111.412 210.427 111.946V115.208C210.427 117.412 210.427 119.647 210.427 121.912C210.427 125.895 210.427 129.788 210.427 133.546C210.404 133.998 210.424 134.451 210.487 134.899C210.596 135.319 210.811 135.705 211.111 136.019C211.722 136.669 212.465 137.181 213.29 137.522C214.915 138.173 216.643 138.527 218.393 138.567C220.059 138.653 221.729 138.504 223.354 138.123C224.887 137.82 226.295 137.066 227.397 135.959C227.633 135.686 227.812 135.369 227.923 135.027C228.007 134.678 228.038 134.318 228.013 133.959V131.78C228.013 130.352 228.013 128.984 228.013 127.676C228.013 122.468 228.058 118.252 228.073 115.306C228.073 113.863 228.073 112.735 228.073 111.939C228.073 111.142 228.111 110.766 228.111 110.766C228.15 111.156 228.165 111.547 228.156 111.939C228.156 112.735 228.156 113.863 228.194 115.306C228.194 118.252 228.194 122.468 228.254 127.676C228.254 128.984 228.254 130.352 228.254 131.78V133.959C228.283 134.348 228.252 134.738 228.164 135.117C228.041 135.504 227.842 135.861 227.577 136.169C226.435 137.329 224.967 138.115 223.369 138.424C221.714 138.822 220.011 138.981 218.311 138.897C216.507 138.862 214.724 138.5 213.05 137.83C212.174 137.479 211.385 136.943 210.735 136.259C210.394 135.897 210.149 135.455 210.021 134.974C209.948 134.497 209.923 134.013 209.946 133.531C209.946 129.773 209.946 125.88 209.946 121.897C209.946 119.627 209.946 117.392 209.946 115.193V111.931C209.946 111.382 209.946 110.871 209.946 110.308C209.995 109.764 210.111 109.229 210.291 108.714C211.1 106.799 212.165 105.001 213.455 103.371C214.423 101.713 214.908 99.8179 214.853 97.8994L215.034 98.0797C214.787 98.1007 214.539 98.0663 214.308 97.9792C214.076 97.8921 213.867 97.7544 213.696 97.5762C213.521 97.3895 213.408 97.1532 213.373 96.8998C213.373 96.6367 213.373 96.4488 213.373 96.2234C213.358 96.0006 213.358 95.7772 213.373 95.5545C213.417 95.3075 213.535 95.0796 213.711 94.9006C213.879 94.7368 214.079 94.6105 214.3 94.5302C214.52 94.4499 214.755 94.4173 214.989 94.4347H219.829H223.218C223.614 94.423 224.001 94.5537 224.308 94.8029C224.458 94.9303 224.576 95.0914 224.651 95.273C224.727 95.4545 224.759 95.6514 224.744 95.8476C224.744 96.2008 224.744 96.5165 224.744 96.8923C224.661 97.2454 224.45 97.5551 224.151 97.7608C223.852 97.9665 223.488 98.0534 223.128 98.0046L223.256 97.8768C223.184 99.8278 223.674 101.758 224.669 103.438C225.541 104.625 226.34 105.865 227.059 107.151C227.508 107.964 227.823 108.845 227.991 109.759C228.029 109.995 228.052 110.234 228.058 110.473C228.114 110.56 228.152 110.657 228.171 110.759Z" fill="#263238"/>
    <path d="M222.782 97.8694C220.284 98.132 217.765 98.132 215.267 97.8694C217.765 97.6067 220.284 97.6067 222.782 97.8694Z" fill="#263238"/>
    <path d="M227.42 113.923C227.017 113.726 226.572 113.633 226.124 113.653C225.676 113.673 225.241 113.804 224.857 114.035C224.089 114.503 223.259 114.859 222.392 115.095C221.333 115.193 220.273 114.928 219.386 114.344C218.5 113.766 217.567 113.263 216.597 112.84C215.634 112.513 214.599 112.463 213.609 112.695C212.619 112.928 211.714 113.434 210.998 114.156V134.448C210.998 134.448 212.118 137.913 219.979 137.372C227.841 136.83 227.217 133.358 227.217 133.358L227.42 113.923Z" fill="#FDAA8C"/>
    <path d="M288.169 275.299V298.815C288.169 299.852 287.342 300.912 285.809 301.724C283.77 302.687 281.532 303.153 279.278 303.084C273.709 303.084 270.387 300.882 270.387 298.815V275.329C270.387 275.329 270.387 275.329 270.387 275.276C270.387 272.976 272.085 270.579 273.784 268.212C274.934 266.626 275.204 264.341 275.287 263.003C275.287 262.845 275.287 262.703 275.287 262.575H275.084C274.757 262.598 274.433 262.491 274.184 262.277C273.935 262.063 273.781 261.76 273.754 261.432V260.44C273.779 260.113 273.933 259.808 274.182 259.594C274.432 259.38 274.756 259.273 275.084 259.298H283.441C283.689 259.29 283.935 259.35 284.151 259.472C284.367 259.594 284.545 259.773 284.666 259.989C284.732 260.131 284.766 260.285 284.764 260.44V261.432C284.739 261.759 284.586 262.062 284.338 262.276C284.09 262.49 283.768 262.598 283.441 262.575H283.284C283.284 262.703 283.284 262.845 283.284 263.003C283.336 264.341 283.607 266.626 284.749 268.212C286.455 270.579 288.139 272.976 288.154 275.276C288.176 275.269 288.169 275.284 288.169 275.299Z" fill="#FAFAFA"/>
    <path d="M288.168 275.299C288.173 275.219 288.173 275.138 288.168 275.058C288.152 274.821 288.122 274.585 288.078 274.352C287.877 273.463 287.545 272.61 287.093 271.819C286.366 270.556 285.557 269.341 284.673 268.181C283.643 266.485 283.122 264.529 283.17 262.545V262.402H283.298C283.592 262.446 283.893 262.379 284.14 262.214C284.387 262.048 284.564 261.796 284.636 261.507C284.636 261.214 284.636 260.846 284.636 260.508C284.65 260.354 284.626 260.199 284.568 260.057C284.509 259.914 284.416 259.788 284.298 259.689C284.042 259.486 283.722 259.382 283.396 259.396H280.029H275.219C275.031 259.379 274.843 259.403 274.665 259.465C274.487 259.527 274.325 259.626 274.189 259.756C274.063 259.886 273.979 260.051 273.949 260.23C273.937 260.433 273.937 260.636 273.949 260.839C273.949 261.042 273.949 261.29 273.949 261.462C273.972 261.646 274.054 261.817 274.182 261.951C274.32 262.089 274.488 262.195 274.672 262.26C274.857 262.325 275.054 262.348 275.249 262.327H275.429V262.515C275.42 263.477 275.315 264.437 275.113 265.378C274.921 266.367 274.538 267.309 273.986 268.151C272.727 269.758 271.691 271.528 270.905 273.412C270.733 273.897 270.625 274.403 270.582 274.915C270.582 275.411 270.582 275.968 270.582 276.494C270.582 277.561 270.582 278.643 270.582 279.74V286.384C270.582 290.345 270.582 294.216 270.582 297.951C270.559 298.398 270.579 298.846 270.642 299.289C270.753 299.708 270.967 300.093 271.265 300.408C271.874 301.056 272.611 301.568 273.43 301.912C275.036 302.542 276.741 302.883 278.465 302.919C280.122 303.005 281.782 302.856 283.396 302.475C284.919 302.179 286.318 301.43 287.409 300.326C287.645 300.056 287.824 299.742 287.935 299.401C288.017 299.054 288.044 298.697 288.018 298.342C288.018 297.59 288.018 296.884 288.018 296.177C288.018 294.757 288.018 293.404 288.018 292.104C288.018 286.925 288.063 282.732 288.078 279.808C288.078 278.373 288.078 277.253 288.116 276.471C288.153 275.69 288.116 275.306 288.116 275.306C288.16 275.693 288.175 276.082 288.161 276.471C288.161 277.223 288.161 278.373 288.161 279.808C288.161 282.732 288.198 286.925 288.228 292.104C288.228 293.404 288.228 294.757 288.228 296.177C288.228 296.884 288.228 297.605 288.228 298.342C288.258 298.728 288.225 299.116 288.131 299.492C288.009 299.875 287.813 300.23 287.552 300.536C286.419 301.692 284.962 302.478 283.373 302.791C281.728 303.189 280.035 303.348 278.345 303.264C276.562 303.227 274.8 302.868 273.144 302.205C272.314 301.848 271.567 301.323 270.95 300.664C270.613 300.303 270.37 299.864 270.243 299.386C270.171 298.914 270.146 298.436 270.168 297.958V276.479C270.168 275.938 270.168 275.426 270.168 274.87C270.218 274.327 270.334 273.792 270.514 273.277C271.317 271.377 272.374 269.595 273.655 267.978C274.613 266.331 275.095 264.45 275.046 262.545L275.219 262.718C274.975 262.738 274.73 262.704 274.502 262.618C274.273 262.532 274.066 262.397 273.896 262.221C273.72 262.036 273.61 261.799 273.58 261.545C273.58 261.29 273.58 261.102 273.58 260.876C273.566 260.653 273.566 260.43 273.58 260.207C273.628 259.964 273.745 259.739 273.918 259.561C274.085 259.398 274.285 259.272 274.504 259.192C274.723 259.112 274.956 259.079 275.189 259.095H279.999H283.366C283.759 259.082 284.144 259.213 284.448 259.463C284.597 259.59 284.714 259.749 284.79 259.93C284.866 260.11 284.898 260.305 284.884 260.5C284.884 260.854 284.884 261.169 284.884 261.538C284.792 261.884 284.58 262.187 284.285 262.391C283.99 262.595 283.632 262.687 283.275 262.65L283.403 262.522C283.333 264.457 283.818 266.371 284.801 268.039C285.674 269.214 286.467 270.447 287.176 271.729C287.624 272.537 287.939 273.413 288.108 274.322C288.148 274.555 288.168 274.791 288.168 275.028C288.191 275.216 288.183 275.299 288.168 275.299Z" fill="#263238"/>
    <path d="M282.817 262.484C280.344 262.745 277.85 262.745 275.377 262.484C277.85 262.224 280.344 262.224 282.817 262.484Z" fill="#263238"/>
    <path d="M287.425 278.44C287.025 278.242 286.582 278.148 286.137 278.167C285.692 278.185 285.258 278.315 284.877 278.546C284.116 279.011 283.294 279.367 282.434 279.605C281.376 279.7 280.317 279.435 279.428 278.854C278.548 278.274 277.62 277.771 276.655 277.351C275.699 277.027 274.671 276.979 273.689 277.211C272.707 277.444 271.81 277.948 271.101 278.666V298.853C271.101 298.853 272.205 302.302 280.014 301.761C287.823 301.22 287.214 297.771 287.214 297.771L287.425 278.44Z" fill="#FDAA8C"/>
    <g opacity="0.5">
        <path opacity="0.5" d="M287.425 278.44C287.025 278.242 286.582 278.148 286.137 278.167C285.692 278.185 285.258 278.315 284.877 278.546C284.116 279.011 283.294 279.367 282.434 279.605C281.376 279.7 280.317 279.435 279.428 278.854C278.548 278.274 277.62 277.771 276.655 277.351C275.699 277.027 274.671 276.979 273.689 277.211C272.707 277.444 271.81 277.948 271.101 278.666V298.853C271.101 298.853 272.205 302.302 280.014 301.761C287.823 301.22 287.214 297.771 287.214 297.771L287.425 278.44Z" fill="white"/>
    </g>
    <path d="M300.404 189.838C300.147 189.733 299.868 189.695 299.592 189.727C299.316 189.758 299.053 189.859 298.826 190.019C298.713 190.094 298.593 190.184 298.48 190.274C294.665 193.096 290.027 194.582 285.283 194.506C276.046 194.506 268.395 189.327 267.027 182.563V181.286C267.039 181.158 267.024 181.029 266.983 180.907C266.942 180.785 266.876 180.674 266.789 180.579C266.702 180.484 266.597 180.408 266.479 180.356C266.362 180.305 266.235 180.278 266.107 180.278C265.978 180.278 265.851 180.305 265.734 180.356C265.616 180.408 265.511 180.484 265.424 180.579C265.337 180.674 265.272 180.785 265.23 180.907C265.189 181.029 265.174 181.158 265.186 181.286V184.863C265.192 184.948 265.209 185.031 265.238 185.111C264.603 186.514 264.268 188.035 264.254 189.575C264.254 197.384 272.521 203.727 282.75 203.727C291.325 203.727 298.533 199.27 300.637 193.205C300.663 193.179 300.679 193.144 300.682 193.108C300.926 192.624 301.061 192.093 301.081 191.552C301.136 191.232 301.103 190.902 300.983 190.6C300.864 190.298 300.664 190.034 300.404 189.838Z" fill="#FDAA8C"/>
    <g opacity="0.3">
        <path opacity="0.3" d="M266.336 186.05C266.336 186.05 275.047 206.087 298.653 192.063C298.653 192.063 292.573 198.376 284.644 199.909C277.459 201.285 266.817 197.234 266.336 186.05Z" fill="black"/>
    </g>
    <path d="M301.051 190.845C300.908 191.191 300.344 191.289 299.796 191.056C299.247 190.823 298.916 190.349 299.044 190.004C299.172 189.658 299.75 189.568 300.299 189.801C300.848 190.034 301.201 190.5 301.051 190.845Z" fill="#263238"/>
    <path d="M309.851 61.6665C309.789 61.6774 309.726 61.6774 309.663 61.6665H309.13H307.153L300.517 61.7266H300.464V61.674C300.412 61.3207 300.359 60.9224 300.299 60.5767C299.84 57.36 299.435 54.489 299.164 52.6101H299.202H296.947C296.894 52.6166 296.841 52.6166 296.789 52.6101H296.947H297.42H299.187H299.224V52.6477C299.502 54.5191 299.931 57.3901 300.412 60.5992C300.464 60.975 300.517 61.3508 300.569 61.6965L300.509 61.6439H307.146H309.844L309.851 61.6665Z" fill="#263238"/>
    <path d="M300.231 59.7875C300.231 59.7875 300.231 59.7875 300.284 59.7875H300.419H300.953H302.952L309.836 59.7199L309.776 59.7725C309.972 58.6076 310.19 57.3525 310.408 56.0598C310.52 55.3909 310.633 54.7295 310.746 54.1057L310.806 54.1809H302.689H299.465C299.427 54.1809 299.412 54.1809 299.412 54.1809H299.638H300.284H302.689L310.806 54.1132H310.881V54.1884L310.55 56.1349C310.325 57.4351 310.107 58.6903 309.911 59.8928V59.9379H309.859H302.975H300.254L300.231 59.7875Z" fill="#263238"/>
    <path d="M302.892 64.2368C302.892 64.2368 302.892 64.1541 302.84 64.0113C302.782 63.8164 302.66 63.6467 302.494 63.5303C302.374 63.4457 302.236 63.3912 302.091 63.3716C301.945 63.352 301.798 63.3677 301.66 63.4176C301.492 63.4806 301.348 63.5931 301.246 63.7401C301.145 63.8872 301.09 64.0617 301.09 64.2405C301.09 64.4194 301.145 64.5939 301.246 64.741C301.348 64.888 301.492 65.0005 301.66 65.0635C301.797 65.1163 301.946 65.133 302.092 65.112C302.238 65.0909 302.377 65.0328 302.494 64.9433C302.656 64.8244 302.775 64.6554 302.832 64.4623C302.877 64.3195 302.877 64.2368 302.885 64.2368C302.904 64.3132 302.904 64.3933 302.885 64.4698C302.838 64.6859 302.719 64.8794 302.547 65.0184C302.417 65.1189 302.265 65.1859 302.104 65.2135C301.943 65.241 301.777 65.2282 301.622 65.1762C301.428 65.11 301.259 64.9845 301.139 64.8173C301.019 64.6502 300.955 64.4498 300.955 64.2443C300.955 64.0388 301.019 63.8384 301.139 63.6713C301.259 63.5041 301.428 63.3786 301.622 63.3124C301.778 63.2573 301.944 63.2423 302.107 63.2685C302.27 63.2948 302.424 63.3616 302.554 63.4627C302.727 63.5976 302.847 63.7892 302.892 64.0038C302.914 64.08 302.914 64.1606 302.892 64.2368Z" fill="#263238"/>
    <path d="M308.904 64.1992C308.904 64.1992 308.904 64.1165 308.852 63.9812C308.796 63.7855 308.674 63.6153 308.506 63.5002C308.387 63.4138 308.249 63.3583 308.103 63.3386C307.958 63.3189 307.809 63.3357 307.672 63.3875C307.548 63.4271 307.434 63.4938 307.338 63.5829C307.243 63.6719 307.169 63.7811 307.121 63.9025C307.073 64.0238 307.052 64.1543 307.061 64.2845C307.07 64.4146 307.108 64.5412 307.171 64.6551C307.235 64.7689 307.323 64.8671 307.43 64.9426C307.536 65.0181 307.658 65.069 307.787 65.0915C307.915 65.1141 308.047 65.1077 308.173 65.073C308.299 65.0383 308.415 64.976 308.514 64.8906C308.677 64.7676 308.798 64.5969 308.859 64.4021C308.897 64.2593 308.897 64.1766 308.904 64.1766C308.924 64.2531 308.924 64.3332 308.904 64.4096C308.861 64.6254 308.744 64.8194 308.574 64.9583C308.43 65.0714 308.258 65.1423 308.076 65.1629C307.894 65.1836 307.71 65.1532 307.545 65.0751C307.379 64.9971 307.239 64.8745 307.139 64.7211C307.04 64.5677 306.985 64.3896 306.98 64.2067C306.98 64.002 307.043 63.8021 307.16 63.6341C307.277 63.4661 307.442 63.3381 307.634 63.2673C307.789 63.2122 307.954 63.1971 308.116 63.2234C308.278 63.2497 308.43 63.3165 308.559 63.4176C308.735 63.5492 308.856 63.7423 308.897 63.9587C308.922 64.0365 308.925 64.12 308.904 64.1992Z" fill="#263238"/>
    <path d="M310.85 55.7105C312.287 55.4005 313.2 53.9848 312.89 52.5485C312.58 51.1122 311.164 50.1992 309.728 50.5092C308.291 50.8192 307.378 52.2349 307.688 53.6712C307.998 55.1075 309.414 56.0205 310.85 55.7105Z" fill="#FDAA8C"/>
    <path d="M310.618 52.099V54.1207H310.144V52.4748H309.738V52.099H310.618Z" fill="white"/>
    <path d="M289.755 298.101H212.066C206.304 298.101 201.634 302.772 201.634 308.533V313.538C201.634 319.3 206.304 323.97 212.066 323.97H289.755C295.516 323.97 300.186 319.3 300.186 313.538V308.533C300.186 302.772 295.516 298.101 289.755 298.101Z" fill="#FDAA8C"/>
    <g opacity="0.3">
        <path opacity="0.3" d="M289.755 298.101H212.066C206.304 298.101 201.634 302.772 201.634 308.533V313.538C201.634 319.3 206.304 323.97 212.066 323.97H289.755C295.516 323.97 300.186 319.3 300.186 313.538V308.533C300.186 302.772 295.516 298.101 289.755 298.101Z" fill="black"/>
    </g>
    <path d="M285.929 298.101H208.239C202.478 298.101 197.808 302.772 197.808 308.533V313.538C197.808 319.3 202.478 323.97 208.239 323.97H285.929C291.69 323.97 296.36 319.3 296.36 313.538V308.533C296.36 302.772 291.69 298.101 285.929 298.101Z" fill="#FDAA8C"/>
    <path d="M244.119 309.615C244.119 310.938 243.157 311.742 241.571 311.742H240.068V313.598H239.196V307.481H241.586C243.157 307.481 244.119 308.285 244.119 309.615ZM243.247 309.615C243.247 308.736 242.661 308.24 241.541 308.24H240.038V310.983H241.541C242.661 310.983 243.247 310.487 243.247 309.615Z" fill="white"/>
    <path d="M248.997 312.065H245.773L245.104 313.568H244.202L246.975 307.451H247.84L250.613 313.568H249.696L248.997 312.065ZM248.689 311.366L247.374 308.36L246.051 311.366H248.689Z" fill="white"/>
    <path d="M253.469 311.479V313.598H252.604V311.464L250.177 307.481H251.109L253.063 310.705L255.032 307.481H255.896L253.469 311.479Z" fill="white"/>
    <path d="M221.106 206.275C221.329 204.834 221.264 203.363 220.916 201.947C220.568 200.531 219.943 199.197 219.078 198.024C218.212 196.85 217.123 195.859 215.873 195.109C214.623 194.358 213.236 193.862 211.794 193.649C211.635 193.586 211.46 193.573 211.294 193.611C211.127 193.648 210.975 193.735 210.858 193.859C210.741 193.984 210.664 194.14 210.636 194.309C210.609 194.478 210.632 194.651 210.704 194.806C210.967 197.616 212.114 200.271 213.98 202.388C215.846 204.505 218.336 205.977 221.091 206.591" fill="#455A64"/>
    <path d="M205.616 226.68C208.405 232.43 212.381 236.3 217.378 236.488C218.371 236.488 219.122 235.872 220.069 235.812C220.623 235.937 221.157 236.14 221.655 236.413C221.919 236.525 222.202 236.588 222.489 236.601C227.615 236.323 231.989 232.715 234.935 226.68C239.031 218.225 237.768 209.146 232.109 206.388C231.364 206.016 230.587 205.714 229.787 205.486C228.873 205.231 227.924 205.119 226.976 205.155C224.768 205.295 222.597 205.785 220.543 206.606L220.264 206.711C215.665 204.674 211.997 204.667 208.427 206.388C202.768 209.146 201.513 218.225 205.616 226.68Z" fill="#FDAA8C"/>
    <path d="M205.714 218.12C205.448 217.59 205.29 217.012 205.248 216.421C205.08 214.991 205.252 213.542 205.751 212.191C206.25 210.841 207.062 209.627 208.119 208.65C208.531 208.224 209.028 207.889 209.577 207.665C209.615 207.718 209.051 208.086 208.307 208.845C207.348 209.838 206.606 211.018 206.126 212.311C205.646 213.605 205.439 214.984 205.518 216.361C205.594 217.451 205.782 218.097 205.714 218.12Z" fill="#FAFAFA"/>
    <path d="M206.751 222.133C206.646 222.133 206.465 221.757 206.345 221.246C206.225 220.735 206.217 220.292 206.345 220.262C206.473 220.232 206.631 220.637 206.751 221.156C206.871 221.675 206.856 222.111 206.751 222.133Z" fill="#FAFAFA"/>
    <path d="M232.808 192.439C232.808 192.514 231.741 192.92 230.148 193.874C229.219 194.438 228.332 195.068 227.495 195.761C226.494 196.627 225.568 197.578 224.729 198.602C223.883 199.636 223.128 200.743 222.474 201.908C221.96 202.864 221.518 203.856 221.151 204.877C220.528 206.636 220.347 207.778 220.272 207.763C220.267 207.49 220.297 207.217 220.362 206.951C220.403 206.634 220.466 206.32 220.55 206.012C220.642 205.601 220.755 205.194 220.888 204.794C221.22 203.739 221.645 202.715 222.159 201.736C223.423 199.33 225.162 197.206 227.269 195.49C228.122 194.798 229.032 194.179 229.99 193.641C230.357 193.43 230.736 193.239 231.125 193.07C231.41 192.928 231.704 192.802 232.004 192.694C232.261 192.578 232.531 192.492 232.808 192.439Z" fill="#263238"/>
    <path d="M302.411 113.788C297.819 107.384 288.071 102.995 280.149 104.175C273.731 105.129 268.049 108.113 264.938 114.486C264.731 114.903 264.627 115.362 264.635 115.827C264.643 116.292 264.763 116.748 264.984 117.157C265.205 117.565 265.521 117.915 265.905 118.176C266.289 118.438 266.731 118.603 267.192 118.658C277.886 119.934 288.696 119.899 299.382 118.552C301.035 118.342 302.989 117.884 303.102 115.847C303.112 115.102 302.869 114.375 302.411 113.788Z" fill="#FDAA8C"/>
    <path d="M277.052 113.472C277.015 113.472 276.684 113.179 276.248 112.577C275.668 111.782 275.253 110.877 275.031 109.917C274.843 108.962 274.762 107.989 274.79 107.016C274.762 106.612 274.795 106.207 274.888 105.813C275.015 106.196 275.076 106.598 275.068 107.001C275.122 107.949 275.237 108.893 275.414 109.827C275.63 110.744 275.991 111.622 276.481 112.427C276.716 112.749 276.908 113.101 277.052 113.472Z" fill="#263238"/>
    <path d="M283.862 113.156C283.741 113.156 283.907 111.337 283.674 109.128C283.441 106.918 282.922 105.182 283.02 105.145C283.628 106.374 283.98 107.713 284.057 109.083C284.263 110.44 284.197 111.825 283.862 113.156Z" fill="#263238"/>
    <path d="M290.866 112.119C290.761 112.074 291.287 110.856 291.415 109.263C291.543 107.67 291.25 106.385 291.362 106.362C291.74 107.293 291.892 108.299 291.806 109.3C291.72 110.301 291.398 111.267 290.866 112.119Z" fill="#263238"/>
    <g opacity="0.3">
        <path opacity="0.3" d="M282.6 104.506L282.66 104.619L282.6 104.506Z" fill="black"/>
    </g>
    <g opacity="0.3">
        <path opacity="0.3" d="M282.667 104.588C281.965 105.874 281.696 107.352 281.899 108.803C282.102 110.254 282.766 111.601 283.794 112.645C284.459 109.914 284.056 107.032 282.667 104.588Z" fill="black"/>
    </g>
    <g opacity="0.3">
        <path opacity="0.3" d="M276.129 112.345C275.4 111.022 274.964 109.559 274.851 108.053C274.859 107.388 274.763 106.726 274.565 106.091C273.775 107.075 273.386 108.32 273.476 109.579C273.583 110.901 274.203 112.128 275.204 112.998C275.354 113.138 275.534 113.241 275.73 113.299C275.829 113.323 275.933 113.317 276.029 113.28C276.124 113.244 276.206 113.18 276.264 113.096C276.399 112.863 276.264 112.577 276.129 112.345Z" fill="black"/>
    </g>
    <g opacity="0.3">
        <path opacity="0.3" d="M291.506 106.956C291.479 106.693 291.403 106.438 291.28 106.204C291.217 106.091 291.122 105.998 291.008 105.936C290.893 105.875 290.763 105.848 290.634 105.859C290.281 105.919 290.108 106.317 290.002 106.663C289.411 108.146 289.232 109.761 289.484 111.337C289.567 111.691 289.8 112.089 290.168 112.089C290.536 112.089 290.634 111.788 290.761 111.54C291.482 110.127 291.743 108.524 291.506 106.956Z" fill="black"/>
    </g>
    <path d="M209.269 150.622V155.026H208.45V151.306H207.518V150.622H209.269Z" fill="#263238"/>
    <path d="M211.148 154.545C211.138 154.735 211.089 154.922 211.005 155.093L210.682 155.98H210.171L210.427 155.011C210.335 154.973 210.258 154.908 210.206 154.825C210.153 154.741 210.128 154.643 210.134 154.545C210.125 154.473 210.131 154.4 210.153 154.331C210.174 154.262 210.21 154.198 210.258 154.144C210.306 154.09 210.365 154.047 210.431 154.017C210.497 153.987 210.569 153.972 210.641 153.972C210.713 153.972 210.785 153.987 210.851 154.017C210.917 154.047 210.976 154.09 211.024 154.144C211.072 154.198 211.107 154.262 211.129 154.331C211.15 154.4 211.157 154.473 211.148 154.545Z" fill="#263238"/>
    <path d="M214.883 153.673C214.883 154.425 214.327 155.094 213.14 155.094C212.548 155.103 211.969 154.924 211.486 154.582L211.832 153.944C212.204 154.231 212.662 154.384 213.132 154.38C213.711 154.38 214.064 154.124 214.064 153.703C214.064 153.282 213.786 153.019 212.877 153.019H211.817L212.042 150.622H214.628V151.306H212.704L212.606 152.328H213.027C214.365 152.328 214.883 152.891 214.883 153.673Z" fill="#263238"/>
    <path d="M215.357 152.824C215.357 151.373 216.154 150.569 217.199 150.569C218.243 150.569 219.04 151.388 219.04 152.824C219.04 154.259 218.251 155.078 217.199 155.078C216.147 155.078 215.357 154.274 215.357 152.824ZM218.221 152.824C218.221 151.757 217.8 151.268 217.199 151.268C216.598 151.268 216.184 151.757 216.184 152.824C216.184 153.891 216.598 154.38 217.199 154.38C217.8 154.38 218.221 153.883 218.221 152.824Z" fill="#263238"/>
    <path d="M237.258 160.64C237.258 160.753 229.178 160.835 219.22 160.835C209.262 160.835 201.183 160.753 201.183 160.64C201.183 160.527 209.262 160.445 219.22 160.445C229.178 160.445 237.258 160.535 237.258 160.64Z" fill="#263238"/>
    <path d="M217.965 163.579C217.965 163.691 214.207 163.774 209.585 163.774C204.963 163.774 201.197 163.691 201.197 163.579C201.197 163.466 204.955 163.383 209.585 163.383C214.214 163.383 217.965 163.473 217.965 163.579Z" fill="#263238"/>
    <path d="M274.197 136.319V137.011H270.943V136.462L272.694 134.801C273.122 134.388 273.197 134.132 273.197 133.884C273.197 133.486 272.919 133.253 272.378 133.253C272.183 133.243 271.987 133.279 271.808 133.358C271.629 133.438 271.472 133.559 271.349 133.711L270.777 133.268C270.977 133.021 271.232 132.824 271.522 132.693C271.812 132.563 272.128 132.502 272.446 132.516C273.408 132.516 274.024 132.997 274.024 133.779C274.015 134.053 273.943 134.322 273.813 134.563C273.682 134.804 273.497 135.012 273.273 135.169L272.093 136.297L274.197 136.319Z" fill="#263238"/>
    <path d="M275.737 136.53C275.726 136.718 275.677 136.902 275.595 137.071L275.271 137.958H274.76L275.016 136.996C274.924 136.959 274.845 136.894 274.792 136.811C274.738 136.727 274.711 136.629 274.715 136.53C274.715 136.394 274.769 136.264 274.865 136.168C274.961 136.073 275.091 136.019 275.226 136.019C275.362 136.019 275.492 136.073 275.588 136.168C275.684 136.264 275.737 136.394 275.737 136.53Z" fill="#263238"/>
    <path d="M279.526 136.319V137.011H276.272V136.462L278.023 134.801C278.451 134.388 278.526 134.132 278.526 133.884C278.526 133.486 278.248 133.253 277.707 133.253C277.512 133.243 277.316 133.279 277.137 133.359C276.958 133.438 276.801 133.559 276.678 133.711L276.106 133.268C276.307 133.02 276.563 132.822 276.855 132.692C277.146 132.561 277.464 132.501 277.782 132.517C278.737 132.517 279.353 132.998 279.353 133.779C279.345 134.053 279.272 134.322 279.142 134.563C279.011 134.804 278.826 135.012 278.602 135.17L277.422 136.297L279.526 136.319Z" fill="#263238"/>
    <path d="M283.201 135.658C283.201 136.41 282.645 137.071 281.457 137.071C280.865 137.083 280.285 136.904 279.804 136.56L280.149 135.929C280.52 136.212 280.975 136.363 281.442 136.357C282.028 136.357 282.374 136.101 282.374 135.688C282.374 135.275 282.104 134.997 281.194 134.997H280.127L280.36 132.599H282.945V133.291H281.051L280.954 134.305H281.374C282.682 134.305 283.201 134.876 283.201 135.658Z" fill="#263238"/>
    <path d="M300.517 142.625C300.517 142.73 292.437 142.82 282.479 142.82C272.521 142.82 264.441 142.73 264.441 142.625C264.441 142.52 272.528 142.43 282.479 142.43C292.43 142.43 300.517 142.52 300.517 142.625Z" fill="#263238"/>
    <path d="M281.239 145.564C281.239 145.669 277.481 145.759 272.852 145.759C268.222 145.759 264.472 145.669 264.472 145.564C264.472 145.458 268.229 145.368 272.852 145.368C277.474 145.368 281.239 145.458 281.239 145.564Z" fill="#263238"/>
    <path d="M206.301 244.297C206.301 242.846 207.097 242.042 208.142 242.042C209.187 242.042 209.983 242.854 209.983 244.297C209.983 245.74 209.194 246.551 208.142 246.551C207.09 246.551 206.301 245.74 206.301 244.297ZM209.164 244.297C209.164 243.237 208.743 242.741 208.142 242.741C207.541 242.741 207.127 243.237 207.127 244.297C207.127 245.356 207.541 245.852 208.142 245.852C208.743 245.852 209.164 245.356 209.164 244.297Z" fill="#263238"/>
    <path d="M211.471 246.018C211.46 246.206 211.411 246.39 211.329 246.559L211.006 247.446H210.502L210.75 246.484C210.66 246.445 210.584 246.379 210.532 246.296C210.479 246.213 210.453 246.116 210.457 246.018C210.448 245.946 210.455 245.873 210.476 245.804C210.498 245.735 210.534 245.671 210.582 245.617C210.63 245.563 210.688 245.52 210.754 245.49C210.82 245.46 210.892 245.445 210.964 245.445C211.037 245.445 211.108 245.46 211.174 245.49C211.24 245.52 211.299 245.563 211.347 245.617C211.395 245.671 211.431 245.735 211.452 245.804C211.474 245.873 211.48 245.946 211.471 246.018Z" fill="#263238"/>
    <path d="M215.207 245.139C215.207 245.89 214.65 246.559 213.463 246.559C212.871 246.571 212.291 246.392 211.81 246.048L212.155 245.409C212.525 245.695 212.98 245.848 213.448 245.845C214.034 245.845 214.38 245.589 214.38 245.169C214.38 244.748 214.109 244.485 213.2 244.485H212.133L212.366 242.087H214.959V242.794H213.065L212.967 243.816H213.388C214.688 243.793 215.207 244.357 215.207 245.139Z" fill="#263238"/>
    <path d="M215.71 244.297C215.71 242.846 216.507 242.042 217.551 242.042C218.596 242.042 219.393 242.854 219.393 244.297C219.393 245.74 218.603 246.551 217.551 246.551C216.499 246.551 215.71 245.74 215.71 244.297ZM218.573 244.297C218.573 243.237 218.153 242.741 217.551 242.741C216.95 242.741 216.537 243.237 216.537 244.297C216.537 245.356 216.95 245.852 217.551 245.852C218.153 245.852 218.543 245.356 218.543 244.297H218.573Z" fill="#263238"/>
    <path d="M235.822 252.113C235.822 252.218 227.735 252.308 217.785 252.308C207.834 252.308 199.747 252.218 199.747 252.113C199.747 252.008 207.826 251.918 217.785 251.918C227.743 251.918 235.822 252 235.822 252.113Z" fill="#263238"/>
    <path d="M216.536 255.052C216.536 255.157 212.778 255.247 208.156 255.247C203.534 255.247 199.776 255.157 199.776 255.052C199.776 254.946 203.534 254.856 208.156 254.856C212.778 254.856 216.536 254.939 216.536 255.052Z" fill="#263238"/>
    <path d="M269.598 218.24V222.644H268.779V218.924H267.847V218.24H269.598Z" fill="#263238"/>
    <path d="M271.483 222.171C271.472 222.359 271.423 222.543 271.341 222.712L271.017 223.599H270.506L270.754 222.637C270.664 222.597 270.588 222.532 270.536 222.449C270.484 222.366 270.458 222.269 270.461 222.171C270.461 222.035 270.515 221.905 270.611 221.809C270.707 221.714 270.837 221.66 270.972 221.66C271.108 221.66 271.238 221.714 271.334 221.809C271.43 221.905 271.483 222.035 271.483 222.171Z" fill="#263238"/>
    <path d="M271.936 220.442C271.936 218.991 272.732 218.187 273.777 218.187C274.822 218.187 275.618 218.999 275.618 220.442C275.618 221.885 274.867 222.697 273.777 222.697C272.687 222.697 271.936 221.892 271.936 220.442ZM274.799 220.442C274.799 219.382 274.378 218.886 273.777 218.886C273.176 218.886 272.762 219.382 272.762 220.442C272.762 221.502 273.176 221.998 273.777 221.998C274.378 221.998 274.799 221.509 274.799 220.442Z" fill="#263238"/>
    <path d="M276.174 220.442C276.174 218.991 276.97 218.187 278.015 218.187C279.06 218.187 279.856 218.999 279.856 220.442C279.856 221.885 279.067 222.697 278.015 222.697C276.963 222.697 276.174 221.892 276.174 220.442ZM279.037 220.442C279.037 219.382 278.616 218.886 278.015 218.886C277.414 218.886 277.001 219.382 277.001 220.442C277.001 221.502 277.414 221.998 278.015 221.998C278.616 221.998 279.037 221.509 279.037 220.442Z" fill="#263238"/>
    <path d="M297.631 228.266C297.631 228.371 289.544 228.461 279.593 228.461C269.643 228.461 261.556 228.371 261.556 228.266C261.556 228.16 269.635 228.063 279.593 228.063C289.551 228.063 297.631 228.153 297.631 228.266Z" fill="#263238"/>
    <path d="M278.308 231.204C278.308 231.31 274.55 231.4 269.928 231.4C265.306 231.4 261.548 231.31 261.548 231.204C261.548 231.099 265.306 231.001 269.928 231.001C274.55 231.001 278.308 231.092 278.308 231.204Z" fill="#263238"/>
    <path d="M270.394 59.8101C270.394 59.9153 261.683 60.0055 250.943 60.0055C240.204 60.0055 231.485 59.9153 231.485 59.8101C231.485 59.7049 240.196 59.6147 250.943 59.6147C261.691 59.6147 270.394 59.6974 270.394 59.8101Z" fill="#FDAA8C"/>
    <path d="M7.99581 299.472C6.83311 299.519 5.71991 299.955 4.83428 300.71C3.94864 301.465 3.34174 302.495 3.11064 303.635C2.62225 305.469 2.23833 307.328 1.96075 309.205C1.96075 309.205 -2.45094 313.173 1.96075 314.233C6.37243 315.292 7.97327 309.347 7.97327 309.347L8.64968 299.442L7.99581 299.472Z" fill="#FFBE9D"/>
    <path d="M52.1729 223.526C52.1729 223.526 65.9565 177.237 67.362 175.246C69.6768 171.946 91.9908 162.026 91.9908 162.026L98.0033 149.82L135.063 143.86L144.255 155.69L170.086 174.675L168.282 240.151L167.32 285.869L172.213 342.942L54.8935 342.724L60.1996 330.699L65.7687 226.893L52.1729 223.526Z" fill="#FDAA8C"/>
    <path d="M68.0685 217.281C68.0343 217.159 68.0191 217.032 68.0234 216.905C68.0234 216.612 68.0234 216.259 67.9632 215.83C67.9632 214.898 67.8806 213.576 67.8505 211.885C67.7904 208.548 67.7904 203.941 67.9332 198.852C68.076 193.764 68.3465 189.165 68.6021 185.835C68.7223 184.174 68.8426 182.829 68.9403 181.905L69.053 180.837C69.0644 180.713 69.0871 180.59 69.1207 180.469C69.142 180.593 69.142 180.721 69.1207 180.845C69.1207 181.13 69.1207 181.484 69.0756 181.912C69.023 182.904 68.9478 184.234 68.8576 185.858C68.6772 189.187 68.4518 193.779 68.309 198.867C68.1662 203.956 68.1211 208.548 68.1136 211.885C68.1136 213.508 68.1136 214.838 68.1136 215.83C68.1136 216.259 68.1136 216.582 68.1136 216.905C68.1165 217.032 68.1013 217.158 68.0685 217.281Z" fill="#263238"/>
    <g opacity="0.3">
        <path opacity="0.3" d="M94.6436 203.986C94.6152 203.467 94.7665 202.955 95.072 202.535C95.5867 201.904 96.2921 201.458 97.0823 201.263C97.8724 201.068 98.7046 201.134 99.4537 201.453C101.415 202.392 102.392 204.647 102.791 206.789C103.219 209.134 103.159 211.554 103.602 213.899C104.046 216.244 105.105 218.634 107.172 219.844C109.72 221.347 113.065 220.67 115.74 221.933C119.723 223.804 120.648 228.983 120.851 233.387C121.226 241.722 120.851 250.064 120.505 258.399L118.205 311.625L116.108 338.328L105.316 342.912L91.0361 249.079L94.6436 203.986Z" fill="black"/>
    </g>
    <path d="M97.732 196.38C97.651 196.449 97.5562 196.5 97.4539 196.53C97.1604 196.635 96.8454 196.666 96.537 196.62C95.9723 196.52 95.4456 196.268 95.0138 195.89C94.5821 195.513 94.2616 195.025 94.0869 194.478C93.8551 193.73 93.7809 192.942 93.869 192.163C93.9685 191.292 94.114 190.427 94.3049 189.571C94.6656 187.752 95.0565 185.768 95.4773 183.686C96.3191 179.515 97.1007 175.742 97.6869 173.014L98.4385 169.789C98.5113 169.391 98.6143 168.999 98.7466 168.617C98.7312 169.022 98.6784 169.424 98.5888 169.819C98.431 170.654 98.2356 171.751 97.9951 173.074C97.4765 175.809 96.7324 179.59 95.8907 183.761C95.4623 185.843 95.0565 187.827 94.6882 189.638C94.3199 191.449 93.9366 193.088 94.38 194.396C94.5316 194.906 94.8161 195.367 95.2043 195.732C95.5926 196.096 96.0706 196.351 96.5896 196.47C96.9724 196.525 97.3626 196.494 97.732 196.38Z" fill="#263238"/>
    <path d="M101.536 178.966C101.536 179.003 101.228 179.003 100.717 179.161C99.9995 179.398 99.3691 179.843 98.9052 180.439C98.5565 180.862 98.3222 181.367 98.2248 181.907C98.1274 182.447 98.1702 183.002 98.3491 183.52C98.5456 184.163 98.9309 184.733 99.455 185.154C99.9792 185.575 100.618 185.829 101.288 185.882C101.958 185.936 102.629 185.786 103.214 185.454C103.798 185.121 104.269 184.62 104.565 184.016C104.823 183.534 104.954 182.993 104.943 182.445C104.933 181.898 104.782 181.362 104.504 180.89C104.143 180.226 103.591 179.687 102.919 179.342C102.438 179.101 102.167 179.056 102.167 179.018C102.167 178.981 102.242 179.018 102.385 179.018C102.597 179.047 102.805 179.105 103.001 179.191C103.742 179.503 104.362 180.046 104.767 180.74C105.055 181.218 105.232 181.755 105.286 182.31C105.345 182.955 105.214 183.603 104.91 184.174C104.588 184.85 104.068 185.411 103.42 185.785C102.772 186.159 102.025 186.327 101.279 186.268C100.533 186.208 99.8231 185.924 99.2422 185.452C98.6613 184.98 98.2372 184.343 98.0259 183.626C97.8147 183.013 97.7885 182.352 97.9508 181.724C98.1244 181.068 98.4704 180.471 98.9527 179.994C99.4351 179.517 100.036 179.177 100.694 179.011C100.902 178.956 101.117 178.93 101.333 178.936C101.402 178.934 101.47 178.944 101.536 178.966Z" fill="#263238"/>
    <path d="M114.154 226.818L46.3931 214.553L14.7598 221.497L85.5421 234.236L114.154 226.818Z" fill="#FDAA8C"/>
    <g opacity="0.6">
        <path opacity="0.6" d="M114.154 226.818L46.3931 214.553L14.7598 221.497L85.5421 234.236L114.154 226.818Z" fill="black"/>
    </g>
    <path d="M70.8271 256.37C71.7441 243.879 75.1712 212.155 77.7415 199.897C78.4931 196.229 79.395 192.479 81.4994 189.375C83.6037 186.271 87.3165 184.001 91.0142 184.573C94.3211 185.084 96.9816 187.767 98.3194 190.833C99.6264 193.936 100.21 197.295 100.025 200.656C99.3866 215.808 98.0789 232.778 98.0939 246.825" fill="#455A64"/>
    <path d="M93.7718 226.623C92.9493 226.931 92.1115 227.197 91.2615 227.419C87.2167 228.669 83.3457 230.424 79.74 232.643C79.0131 233.138 78.2605 233.595 77.4854 234.01C77.4854 234.01 77.6582 233.823 78.019 233.537C78.3797 233.251 78.9133 232.868 79.5897 232.41C81.3657 231.23 83.233 230.195 85.1739 229.313C87.1155 228.431 89.1265 227.709 91.1864 227.156C91.9755 226.946 92.6219 226.795 93.0653 226.713C93.2959 226.652 93.5334 226.622 93.7718 226.623Z" fill="#263238"/>
    <path d="M94.8997 212.208C94.8997 212.268 93.8851 212.493 92.2617 212.997C88.0243 214.299 84.0663 216.379 80.5899 219.13C79.2596 220.182 78.4855 220.903 78.4404 220.858C78.5808 220.652 78.7448 220.463 78.9289 220.294C79.2596 219.949 79.7632 219.475 80.4321 218.919C82.133 217.464 83.9908 216.204 85.9711 215.161C87.952 214.121 90.0414 213.302 92.2016 212.719C92.8523 212.536 93.512 212.388 94.1782 212.275C94.4138 212.216 94.6571 212.193 94.8997 212.208Z" fill="#263238"/>
    <path d="M93.3816 200.604C93.3816 200.671 92.5774 200.709 91.3072 200.942C89.6558 201.248 88.0548 201.782 86.5498 202.528C85.0487 203.281 83.6579 204.237 82.4162 205.368C81.4617 206.24 80.9131 206.872 80.9131 206.819C80.9131 206.766 81.0033 206.631 81.2212 206.338C81.5303 205.923 81.8694 205.531 82.2358 205.166C84.6682 202.717 87.8362 201.133 91.2546 200.656C91.7676 200.585 92.2849 200.55 92.8028 200.551C93.1786 200.558 93.374 200.573 93.3816 200.604Z" fill="#263238"/>
    <path d="M84.956 236.739C84.9526 236.761 84.9526 236.784 84.956 236.806V280.172C84.956 282.073 83.4529 284.035 80.6044 285.523C77.756 287.011 73.69 288.025 68.5794 288.033H68.5117C58.2529 288.033 52.1201 283.982 52.1201 280.172V236.806C52.122 236.784 52.122 236.761 52.1201 236.739C52.1201 236.739 52.1201 236.686 52.1201 236.656C52.1201 232.417 55.2541 227.99 58.3957 223.616C60.5001 220.7 61.0036 216.491 61.1013 214.026C61.1013 213.726 61.1013 213.463 61.1013 213.222H60.8157C60.5171 213.248 60.2163 213.214 59.931 213.122C59.6457 213.03 59.3817 212.882 59.1542 212.686C58.9268 212.491 58.7406 212.253 58.6065 211.985C58.4723 211.716 58.393 211.424 58.3731 211.125V209.291C58.3911 208.991 58.469 208.697 58.6023 208.428C58.7356 208.158 58.9215 207.917 59.1491 207.721C59.3768 207.524 59.6415 207.374 59.9277 207.282C60.214 207.189 60.5159 207.154 60.8157 207.18H76.2228C76.6806 207.165 77.1337 207.277 77.5317 207.504C77.9296 207.731 78.257 208.063 78.4775 208.465C78.6006 208.723 78.6648 209.005 78.6654 209.291V211.125C78.6455 211.425 78.566 211.718 78.4314 211.986C78.2968 212.255 78.1099 212.494 77.8817 212.689C77.6534 212.885 77.3884 213.032 77.1022 213.124C76.8161 213.215 76.5145 213.249 76.2153 213.222H75.9372C75.9372 213.463 75.9372 213.726 75.9372 214.026C76.0349 216.491 76.5385 220.7 78.6504 223.616C81.7844 227.99 84.9034 232.417 84.9259 236.656C84.956 236.686 84.956 236.724 84.956 236.739Z" fill="#FAFAFA"/>
    <path d="M84.9561 236.739C84.9661 236.591 84.9661 236.443 84.9561 236.295C84.9286 235.862 84.8759 235.43 84.7983 235.002C84.4375 233.353 83.832 231.768 83.002 230.298C81.6679 227.964 80.1868 225.717 78.5678 223.571C77.6108 222.155 76.9277 220.572 76.5536 218.904C76.1079 217.045 75.876 215.141 75.8622 213.23V213.094H75.9974C76.5672 213.133 77.1352 212.999 77.6283 212.711C77.8762 212.568 78.0896 212.371 78.2532 212.136C78.4168 211.901 78.5268 211.633 78.5753 211.351C78.5753 210.772 78.5753 210.118 78.5753 209.494C78.6013 209.193 78.5541 208.891 78.4376 208.612C78.3211 208.333 78.1389 208.087 77.9064 207.894C77.4153 207.495 76.7945 207.292 76.1628 207.322H69.9248H61.0488C60.6844 207.29 60.3174 207.337 59.9725 207.458C59.6276 207.58 59.3129 207.775 59.0497 208.029C58.7987 208.29 58.6312 208.619 58.5687 208.976C58.5492 209.359 58.5492 209.743 58.5687 210.126C58.5687 210.509 58.5687 210.945 58.5687 211.298C58.6217 211.663 58.7841 212.004 59.0346 212.275C59.3031 212.548 59.6296 212.758 59.9899 212.888C60.3503 213.018 60.7353 213.066 61.1165 213.027H61.2968V213.215C61.2845 214.983 61.0931 216.746 60.7256 218.476C60.361 220.275 59.657 221.989 58.6513 223.526C57.5916 225.029 56.5019 226.532 55.4948 228.126C54.4525 229.709 53.5952 231.406 52.9394 233.184C52.6206 234.087 52.4161 235.026 52.3307 235.98C52.2781 236.919 52.3307 237.926 52.3307 238.903V257.166C52.3307 264.464 52.3307 271.596 52.3307 278.48C52.2899 279.322 52.3302 280.165 52.4509 280.998C52.6622 281.792 53.0677 282.52 53.6309 283.118C54.7639 284.322 56.1395 285.272 57.6668 285.906C59.1662 286.534 60.7282 287 62.3265 287.296C63.8917 287.592 65.477 287.771 67.0688 287.83C70.1344 287.986 73.2065 287.705 76.1928 286.996C77.6193 286.648 79.003 286.144 80.3189 285.493C81.593 284.885 82.7327 284.029 83.6709 282.975C84.1094 282.458 84.4437 281.86 84.6555 281.216C84.8133 280.565 84.869 279.893 84.8208 279.225V275.226C84.8208 272.618 84.8208 270.108 84.8208 267.711C84.8208 258.151 84.8659 250.425 84.8809 245.043C84.896 239.662 84.9486 236.731 84.9486 236.731C84.9714 236.913 84.9714 237.098 84.9486 237.28C84.9486 237.655 84.9486 238.189 84.9486 238.881C84.9486 240.301 84.9486 242.375 84.9486 245.043C84.9486 250.41 84.9486 258.151 85.0087 267.711C85.0087 270.101 85.0087 272.611 85.0087 275.226V280.247C84.999 280.606 84.9434 280.962 84.8434 281.306C84.6219 281.993 84.2669 282.629 83.7987 283.178C82.8375 284.272 81.6638 285.159 80.349 285.786C79.0123 286.437 77.6086 286.941 76.1628 287.289C73.182 288.003 70.1159 288.296 67.0538 288.161C65.4443 288.105 63.8413 287.926 62.2588 287.627C60.6327 287.324 59.0431 286.851 57.5165 286.214C55.9345 285.577 54.5091 284.605 53.3378 283.366C52.7317 282.733 52.2949 281.957 52.0676 281.111C51.9336 280.249 51.8882 279.375 51.9323 278.503V238.918C51.9323 237.926 51.9323 236.964 51.9323 235.964C52.0234 234.98 52.2354 234.011 52.5637 233.078C53.2294 231.27 54.102 229.545 55.1641 227.938C56.1712 226.337 57.276 224.826 58.3357 223.331C59.3077 221.828 59.9884 220.155 60.3423 218.4C60.7047 216.7 60.8985 214.968 60.921 213.23L61.0939 213.403C60.6646 213.441 60.2322 213.383 59.828 213.233C59.4237 213.084 59.0578 212.846 58.7565 212.538C58.4564 212.217 58.2646 211.809 58.2079 211.373C58.2079 210.93 58.2079 210.562 58.2079 210.156C58.1858 209.753 58.1858 209.349 58.2079 208.946C58.2859 208.523 58.4873 208.134 58.7866 207.826C59.0835 207.539 59.438 207.318 59.8267 207.178C60.2154 207.038 60.6294 206.982 61.0413 207.014H69.9173H76.1177C76.8163 206.988 77.5005 207.218 78.0417 207.661C78.3037 207.881 78.5088 208.162 78.6396 208.478C78.7704 208.795 78.8231 209.138 78.7933 209.479C78.7933 210.126 78.7933 210.719 78.7933 211.373C78.7407 211.694 78.6177 211.999 78.4332 212.267C78.2487 212.535 78.0072 212.758 77.726 212.922C77.1893 213.233 76.571 213.374 75.9523 213.327L76.0726 213.207C76.1402 217.168 76.9068 220.835 78.6956 223.436C80.3038 225.593 81.77 227.852 83.0847 230.2C83.9104 231.685 84.4987 233.29 84.8283 234.957C84.9007 235.402 84.9434 235.852 84.9561 236.303C84.9822 236.447 84.9822 236.594 84.9561 236.739Z" fill="#263238"/>
    <path d="M75.0959 213.117C72.8169 213.315 70.5283 213.38 68.2417 213.312C65.9526 213.38 63.6614 213.315 61.3799 213.117C63.6617 212.923 65.9526 212.858 68.2417 212.922C70.5283 212.858 72.8167 212.923 75.0959 213.117Z" fill="#263238"/>
    <path d="M83.5884 242.533C82.2055 241.631 80.3792 242.03 78.8911 242.736C77.403 243.443 75.9976 244.427 74.3817 244.683C72.4802 244.991 70.5637 244.232 68.8727 243.277C67.1817 242.323 65.5809 241.143 63.7621 240.489C61.9981 239.893 60.1022 239.804 58.2899 240.231C56.4777 240.659 54.8219 241.587 53.5107 242.909V280.142C53.5107 280.142 55.555 286.492 69.955 285.5C84.355 284.508 83.2201 278.142 83.2201 278.142L83.5884 242.533Z" fill="#FDAA8C"/>
    <path d="M45.4388 217.19C45.6518 215.816 45.5902 214.413 45.2577 213.063C44.9252 211.713 44.3283 210.442 43.5015 209.323C42.6747 208.205 41.6345 207.262 40.4409 206.548C39.2473 205.835 37.9241 205.365 36.5478 205.165C36.2956 205.1 36.0282 205.13 35.7962 205.248C35.4881 205.459 35.4806 205.902 35.5106 206.27C35.7624 208.956 36.8578 211.493 38.6399 213.518C40.422 215.543 42.7993 216.953 45.4313 217.544" fill="#455A64"/>
    <path d="M30.6555 236.664C33.316 242.15 37.1415 245.848 41.8839 246.028C42.8308 246.028 43.5448 245.434 44.4467 245.382C44.9711 245.504 45.4766 245.696 45.9498 245.953C46.1875 246.058 46.4421 246.119 46.7014 246.133C51.6016 245.87 55.7728 242.428 58.5836 236.664C62.4993 228.599 61.2893 219.934 55.8855 217.296C55.1763 216.942 54.4368 216.653 53.6759 216.431C52.8017 216.196 51.8978 216.09 50.9928 216.116C48.9036 216.265 46.8501 216.736 44.9052 217.514L44.6421 217.611C40.2455 215.672 36.7432 215.657 33.3686 217.303C27.9348 219.934 26.7323 228.599 30.6555 236.664Z" fill="#FDAA8C"/>
    <path d="M30.7455 228.494C30.489 227.988 30.3357 227.436 30.2945 226.871C30.1347 225.505 30.2998 224.122 30.7766 222.833C31.2533 221.544 32.0281 220.385 33.0377 219.453C33.436 219.049 33.9114 218.729 34.4356 218.513C34.4356 218.573 33.9396 218.919 33.2256 219.648C32.3132 220.602 31.6049 221.733 31.1438 222.97C30.6863 224.209 30.4918 225.53 30.5726 226.848C30.6327 227.855 30.8432 228.471 30.7455 228.494Z" fill="#FAFAFA"/>
    <path d="M31.7455 232.327C31.6403 232.327 31.4599 231.974 31.3472 231.478C31.2344 230.982 31.2269 230.568 31.3472 230.546C31.4674 230.523 31.6252 230.899 31.7455 231.395C31.8657 231.891 31.8507 232.304 31.7455 232.327Z" fill="#FAFAFA"/>
    <path d="M56.6068 203.986C56.6068 204.053 55.5997 204.444 54.074 205.361C53.1864 205.895 52.342 206.498 51.5488 207.165C50.5837 207.989 49.691 208.894 48.8807 209.87C48.0866 210.861 47.3776 211.917 46.7613 213.027C46.2673 213.937 45.8452 214.884 45.4987 215.86C44.9049 217.529 44.7471 218.626 44.6494 218.611C44.6497 218.358 44.6774 218.106 44.7321 217.859C44.7689 217.557 44.8292 217.258 44.9125 216.965C44.9992 216.569 45.1071 216.177 45.2356 215.793C45.5518 214.787 45.9568 213.811 46.4457 212.877C47.6469 210.577 49.307 208.549 51.3233 206.917C52.1418 206.249 53.0198 205.658 53.9463 205.151C54.3296 204.918 54.6978 204.76 55.0285 204.602C55.301 204.466 55.5822 204.348 55.8703 204.249C56.1045 204.132 56.3517 204.044 56.6068 203.986Z" fill="#263238"/>
    <path d="M14.7594 221.497L6.24414 328.91L85.6094 348.098C85.6094 348.098 113.297 338.711 113.673 338.072C114.049 337.433 114.154 226.84 114.154 226.84L85.5417 234.258L14.7594 221.497Z" fill="#2A337E"/>
    <g opacity="0.4">
        <path opacity="0.4" d="M13.5152 240L5 347.414L84.3652 366.601C84.3652 366.601 112.053 357.214 112.429 356.575C112.804 355.936 112.91 245.344 112.91 245.344L84.2976 252.762L13.5152 240Z" fill="#2A337E"/>
    </g>
    <path d="M139.242 96.3764L134.815 159.064C134.467 163.997 132.262 168.615 128.644 171.986C125.026 175.357 120.264 177.231 115.319 177.23C112.642 177.236 109.992 176.691 107.534 175.63C105.076 174.569 102.862 173.014 101.03 171.062C99.1977 169.11 97.7861 166.803 96.8828 164.282C95.9794 161.762 95.6036 159.083 95.7787 156.411C96.1695 150.444 96.5303 145.551 96.5303 145.551C96.5303 145.551 81.3562 143.191 81.1683 128.017C81.0631 119.254 82.5737 99.3677 83.8664 84.1334C84.2907 79.1575 86.5703 74.523 90.2528 71.1496C93.9352 67.7762 98.7513 65.9106 103.745 65.923H112.907C116.654 66.1431 120.318 67.1119 123.684 68.7722C127.05 70.4325 130.049 72.7506 132.504 75.5895C134.959 78.4284 136.82 81.7305 137.977 85.3008C139.135 88.8711 139.565 92.6372 139.242 96.3764Z" fill="#FFBE9D"/>
    <path d="M96.5606 145.551C96.5606 145.551 106.128 146.115 116.319 139.712C116.319 139.712 111.434 150.752 96.29 149.384L96.5606 145.551Z" fill="#EB996E"/>
    <path d="M86.7446 99.781C87.0152 100.067 88.6536 98.8491 90.991 98.8566C93.3283 98.8641 95.0269 100.029 95.2824 99.7434C95.4027 99.6157 95.1321 99.1121 94.388 98.5635C93.378 97.8683 92.1795 97.4985 90.9534 97.5038C89.74 97.5054 88.5574 97.8864 87.5713 98.5935C86.8574 99.1497 86.6169 99.6608 86.7446 99.781Z" fill="#263238"/>
    <path d="M112.013 102.464C112.01 103.028 112.227 103.571 112.616 103.979C113.006 104.387 113.538 104.628 114.102 104.651C114.379 104.675 114.658 104.643 114.923 104.556C115.187 104.47 115.432 104.332 115.642 104.15C115.852 103.968 116.024 103.745 116.146 103.496C116.269 103.246 116.341 102.975 116.357 102.697C116.363 102.132 116.148 101.587 115.757 101.178C115.367 100.769 114.832 100.53 114.267 100.51C113.99 100.485 113.711 100.517 113.446 100.603C113.181 100.688 112.936 100.826 112.725 101.009C112.515 101.191 112.344 101.414 112.221 101.664C112.099 101.914 112.028 102.186 112.013 102.464Z" fill="#263238"/>
    <path d="M88.8487 102.464C88.8444 103.029 89.0601 103.573 89.4501 103.981C89.8402 104.389 90.3738 104.63 90.9381 104.651C91.2154 104.676 91.4948 104.644 91.7597 104.559C92.0246 104.473 92.2696 104.335 92.48 104.153C92.6904 103.97 92.8619 103.747 92.9844 103.497C93.1068 103.247 93.1777 102.975 93.1928 102.697C93.201 102.133 92.9875 101.587 92.5983 101.179C92.2091 100.77 91.6751 100.53 91.1109 100.51C90.8328 100.483 90.5521 100.513 90.2859 100.598C90.0196 100.683 89.7733 100.821 89.5619 101.003C89.3504 101.186 89.1782 101.41 89.0556 101.661C88.9331 101.912 88.8627 102.185 88.8487 102.464Z" fill="#263238"/>
    <path d="M109.434 99.7885C109.705 100.067 111.351 98.8491 113.68 98.8566C116.01 98.8641 117.716 100.029 117.972 99.7434C118.092 99.6157 117.822 99.1121 117.077 98.5635C116.067 97.8683 114.869 97.4985 113.643 97.5038C112.429 97.5054 111.247 97.8864 110.261 98.5935C109.547 99.1497 109.306 99.6608 109.434 99.7885Z" fill="#263238"/>
    <path d="M100.971 117.075C100.971 116.947 99.5356 116.699 97.2132 116.398C96.6195 116.33 96.0558 116.218 95.9581 115.812C95.904 115.197 96.0404 114.58 96.3489 114.046L98.1151 109.536C100.558 103.08 102.331 97.7744 102.068 97.6767C101.805 97.579 99.6107 102.735 97.1682 109.191C96.5418 110.759 95.9782 112.27 95.4771 113.723C95.108 114.443 94.9991 115.269 95.169 116.06C95.2563 116.27 95.3903 116.458 95.5609 116.609C95.7314 116.76 95.9341 116.871 96.1535 116.932C96.4819 117.021 96.8203 117.069 97.1606 117.075C99.498 117.202 100.964 117.21 100.971 117.075Z" fill="#263238"/>
    <path d="M107.833 118.69C107.458 118.69 107.45 121.201 105.286 122.997C103.121 124.793 100.423 124.5 100.4 124.868C100.4 125.026 101.002 125.357 102.144 125.394C103.626 125.413 105.068 124.91 106.217 123.974C107.318 123.069 108.026 121.774 108.194 120.359C108.292 119.307 108.006 118.675 107.833 118.69Z" fill="#263238"/>
    <path d="M108.833 92.2054C109.066 92.8367 111.389 92.536 114.094 92.8667C116.8 93.1974 119.047 93.9415 119.408 93.3778C119.573 93.1072 119.182 92.506 118.295 91.8747C117.11 91.1117 115.76 90.6404 114.357 90.4993C112.958 90.3292 111.538 90.4967 110.216 90.9878C109.239 91.4087 108.736 91.9047 108.833 92.2054Z" fill="#263238"/>
    <path d="M87.0674 93.1072C87.4807 93.6408 89.0891 93.1072 91.0206 93.0621C92.9521 93.017 94.583 93.4229 94.9663 92.8667C95.1242 92.5961 94.8686 92.0625 94.1546 91.5665C93.1956 90.963 92.0783 90.6593 90.9457 90.6941C89.8131 90.7289 88.7166 91.1007 87.7964 91.7619C87.1125 92.303 86.887 92.8517 87.0674 93.1072Z" fill="#263238"/>
    <path d="M134.123 107.785C134.386 107.672 144.555 104.704 144.224 115.075C143.894 125.447 133.545 122.974 133.537 122.681C133.53 122.388 134.123 107.785 134.123 107.785Z" fill="#FFBE9D"/>
    <path d="M136.814 118.826C136.86 118.826 136.995 118.961 137.295 119.111C137.718 119.308 138.201 119.332 138.641 119.179C139.753 118.811 140.73 117.105 140.835 115.233C140.895 114.346 140.751 113.456 140.414 112.633C140.328 112.305 140.163 112.003 139.934 111.753C139.704 111.503 139.418 111.312 139.099 111.197C138.893 111.136 138.671 111.148 138.473 111.234C138.275 111.319 138.114 111.471 138.017 111.663C137.867 111.949 137.927 112.159 137.874 112.174C137.822 112.189 137.656 111.994 137.754 111.566C137.823 111.312 137.973 111.087 138.182 110.927C138.475 110.72 138.836 110.637 139.189 110.694C139.613 110.793 140.004 110.998 140.326 111.29C140.648 111.582 140.89 111.951 141.031 112.362C141.441 113.277 141.624 114.278 141.564 115.278C141.429 117.368 140.294 119.284 138.784 119.675C138.502 119.746 138.208 119.753 137.923 119.696C137.638 119.639 137.37 119.519 137.138 119.344C136.814 119.059 136.814 118.848 136.814 118.826Z" fill="#EB996E"/>
    <path d="M139.895 107.409C138.317 107.026 135.581 108.492 134.905 109.972C134.228 111.453 134.078 113.129 133.401 114.609C132.725 116.09 131.207 117.435 129.644 117.06C129.107 116.89 128.625 116.582 128.246 116.166C127.867 115.751 127.605 115.242 127.487 114.692C127.269 113.588 127.269 112.452 127.487 111.348C128.095 106.5 129.11 101.698 129.305 96.8199C129.501 91.9422 128.809 86.8692 126.247 82.713C123.684 78.5568 118.979 75.498 114.109 75.8888C110.885 76.1518 107.931 77.8353 104.729 78.2788C102.824 78.531 100.886 78.346 99.0634 77.7379C97.2403 77.1298 95.5796 76.1145 94.2074 74.769C93.8541 74.4232 92.2383 73.3485 92.2383 73.3485C92.2383 73.1005 92.4713 70.936 93.328 70.1468C99.6788 64.2696 111.133 62.6312 119.528 64.7431C127.923 66.855 135.791 72.7773 139.399 80.6462C143.006 88.5151 141.939 99.4353 139.948 107.409" fill="#263238"/>
    <path d="M82.2353 81.3978C83.5956 84.5468 87.0679 86.3807 90.5025 86.7264C93.9372 87.0721 97.3267 86.1853 100.626 85.2232C103.925 84.2612 112.786 82.8182 116.221 82.9235C116.732 82.9235 117.348 82.9235 117.626 82.4951C117.987 81.9164 117.409 81.2174 116.875 80.8041C112.366 77.2567 101.415 75.0846 95.6733 74.8441C89.9313 74.6036 83.9113 77.0988 80.7998 81.9013" fill="#263238"/>
    <path d="M83.7314 81.7886C83.7314 81.7886 123.564 69.012 140.76 103.426C140.76 103.426 143.331 94.8057 143.331 90.1836C143.331 87.1022 141.489 68.7189 122.58 62.9394C122.58 62.9394 94.088 52.0717 83.7314 81.7886Z" fill="#FDAA8C"/>
    <g opacity="0.4">
        <path opacity="0.4" d="M86 81.7886C89.3115 78.3015 93.8514 76.2418 98.6564 76.0466C110.403 75.5205 132.379 82.1268 142.999 103.426C142.999 103.426 145.569 94.8057 145.569 90.1836C145.569 87.1022 143.728 68.7189 124.818 62.9394C124.848 62.9394 96.3566 52.0717 86 81.7886Z" fill="#F5841F"/>
    </g>
    <path d="M139.069 99.3902C133.031 90.4004 125.119 82.824 115.876 77.1815C106.752 71.4621 91.6229 65.8103 81.1987 63.037C78.0722 62.2103 74.8104 61.4813 71.6163 62.0375C68.4221 62.5936 65.2956 64.713 64.5065 67.8546C63.5144 71.7853 70.519 77.8504 73.7732 80.2328C76.9858 82.3741 80.3126 84.3385 83.739 86.1176C83.739 86.1176 83.6488 78.8274 95.3206 77.3243C111.186 75.28 139.069 99.3902 139.069 99.3902Z" fill="#2A337E"/>
    <path d="M106.451 69.6433C106.451 69.6433 100.709 66.4717 94.9521 65.7352C95.9108 64.9793 96.9613 64.348 98.0787 63.8563C101.206 64.3745 104.23 65.3894 107.037 66.8625L106.451 69.6433Z" fill="#FAFAFA"/>
    <path d="M156.46 173.051C156.46 173.051 145.578 185.49 146.78 202.798C146.946 205.196 147.066 208.54 147.359 210.93C149.193 225.781 152.034 239.565 152.034 239.565H153.071L191.017 230.193C191.017 230.193 185.298 197.252 183.983 192.877C179.782 178.876 165.374 171.172 165.374 171.172L156.46 173.051Z" fill="#FDAA8C"/>
    <path d="M113.673 338.072C113.673 338.072 113.673 337.884 113.673 337.516C113.673 337.148 113.673 336.584 113.673 335.863C113.673 334.405 113.673 332.27 113.673 329.512C113.673 323.973 113.673 315.984 113.718 305.973C113.786 285.989 113.884 258.181 113.997 226.818L114.237 227.006L99.807 230.764L85.6324 234.439L85.7752 234.251C85.9706 249.974 85.918 264.81 85.8429 278.218C85.7677 291.626 85.6926 303.598 85.6324 313.609C85.5723 323.62 85.6324 331.646 85.6324 337.208C85.6324 339.974 85.6324 342.116 85.6324 343.581V345.235C85.6324 345.603 85.6324 345.791 85.6324 345.791C85.6324 345.791 85.6324 345.603 85.6324 345.235C85.6324 344.866 85.6324 344.303 85.6324 343.581C85.6324 342.078 85.5798 339.974 85.5347 337.208C85.4671 331.669 85.422 323.62 85.4295 313.609C85.437 303.598 85.5122 291.618 85.5573 278.218C85.6024 264.817 85.6475 249.974 85.4446 234.259V234.101L85.5949 234.063L99.7619 230.388L114.199 226.63L114.447 226.563V226.818C114.282 258.181 114.139 285.996 114.042 305.973C113.974 315.954 113.914 323.973 113.876 329.512C113.876 332.27 113.831 334.405 113.816 335.863C113.816 336.614 113.816 337.133 113.816 337.516C113.816 337.899 113.673 338.072 113.673 338.072Z" fill="#263238"/>
    <path d="M96.1018 150.685C96.1018 150.685 94.5986 165.122 99.4537 167.369C104.933 169.895 110.397 167.422 113.733 165.28C122.685 159.568 135.987 143.703 135.987 143.703L145.006 155.412C145.006 155.412 122.294 182.709 117.732 182.528C114.726 182.416 110.103 179.522 107.21 177.485C105.626 176.379 104.216 175.045 103.024 173.525L99.093 168.527C94.1853 170.947 90.217 174.051 87.4738 178.026C87.4738 178.026 86.1661 167.918 88.5185 163.333C90.8709 158.749 95.5606 150.835 95.5606 150.835L96.1018 150.685Z" fill="#FDAA8C"/>
    <path d="M88.2409 163.724C88.2226 163.811 88.1923 163.894 88.1507 163.972C88.0831 164.153 87.9854 164.386 87.8576 164.679C87.5456 165.613 87.3216 166.574 87.1887 167.55C86.7524 171.144 86.7524 174.778 87.1887 178.372L86.9181 178.32C88.1825 176.184 89.8341 174.303 91.7883 172.773C94.0006 170.975 96.4172 169.443 98.9883 168.211L99.1085 168.151L99.1987 168.256C100.785 170.097 102.461 172.014 104.227 173.961C105.993 176 107.982 177.835 110.157 179.432C111.195 180.167 112.324 180.766 113.516 181.213C114.102 181.427 114.706 181.59 115.32 181.702C115.921 181.799 116.532 181.822 117.139 181.769C119.581 181.544 121.648 180.146 123.362 178.673L138.911 162.093L143.421 157.336L144.631 156.081L144.946 155.758L145.067 155.66L144.977 155.78L144.676 156.126L143.511 157.419L139.077 162.251L123.64 178.921C122.749 179.714 121.777 180.409 120.739 180.995C119.652 181.612 118.449 181.995 117.206 182.123C116.564 182.175 115.919 182.152 115.282 182.055C114.645 181.943 114.018 181.774 113.411 181.551C112.183 181.092 111.019 180.478 109.946 179.725C107.74 178.113 105.723 176.257 103.934 174.194C102.16 172.239 100.484 170.315 98.9056 168.467L99.1236 168.512C96.5774 169.734 94.1815 171.247 91.9837 173.021C90.0767 174.519 88.4594 176.353 87.2113 178.432L86.9858 178.823L86.9407 178.38C86.5208 174.762 86.5612 171.105 87.0609 167.497C87.2151 166.52 87.4669 165.561 87.8125 164.634C87.9478 164.318 88.068 164.092 88.1432 163.935C88.1712 163.862 88.2038 163.792 88.2409 163.724Z" fill="#263238"/>
    <g opacity="0.3">
        <path opacity="0.3" d="M88.7968 175.892C88.645 176.271 88.6171 176.688 88.717 177.083C88.8169 177.479 89.0395 177.833 89.353 178.094C89.666 178.214 90.006 178.246 90.3359 178.187C90.6659 178.127 90.9731 177.978 91.2243 177.756C91.7167 177.305 92.1419 176.786 92.487 176.215C93.3858 174.92 94.4666 173.76 95.6962 172.773C96.9062 171.796 98.5671 170.969 99.9575 171.661C100.827 172.235 101.486 173.077 101.836 174.058C103.723 177.914 105.985 181.837 109.675 184.039C113.365 186.241 118.108 186.339 122.174 184.903C126.216 183.33 129.772 180.72 132.485 177.335C135.177 173.961 137.564 170.354 139.618 166.558C141.316 163.619 143.037 160.59 143.563 157.238C143.097 157.501 142 159.192 141.534 159.455C141.534 159.455 124.015 178.748 122.369 179.748C120.723 180.747 116.184 187.406 103.325 172.983L99.0707 168.369C99.0707 168.369 90.9688 172.3 88.7968 175.892Z" fill="black"/>
    </g>
    <path d="M135.719 217.516L116.456 214.561L115.564 220.378L134.827 223.333L135.719 217.516Z" fill="white"/>
    <path d="M187.831 230.922L157.768 238.189L161.241 266.546L103.671 309.783C101.371 310.106 99.011 310.475 97.7033 310.805C94.5542 311.557 88.9926 319.486 87.4219 320.275L76.201 328.933C76.201 328.933 75.2165 332.871 80.3346 332.082C85.4528 331.293 91.1571 327.362 91.7509 327.362C92.3446 327.362 94.1333 328.557 93.254 331.12C92.5024 333.375 89.421 341.131 89.421 341.131L85.6106 348.121C85.6106 348.121 102.085 348.662 106.654 342.551C109.781 338.403 119.431 326.641 119.431 326.641C119.431 326.641 187.2 293.301 191.266 286.319C196.805 276.82 187.831 230.922 187.831 230.922Z" fill="#FFBE9D"/>
    <path d="M173.971 278.766C174.012 277.732 173.966 276.696 173.836 275.67C173.472 273.191 172.257 270.915 170.399 269.234C168.541 267.553 166.155 266.57 163.652 266.456C162.617 266.427 161.581 266.485 160.556 266.628C160.812 266.506 161.086 266.422 161.367 266.38C162.123 266.22 162.895 266.152 163.667 266.178C166.258 266.22 168.744 267.203 170.665 268.942C172.585 270.681 173.808 273.059 174.106 275.632C174.199 276.399 174.199 277.173 174.106 277.94C174.102 278.22 174.056 278.499 173.971 278.766Z" fill="#EB996E"/>
    <path d="M99.1459 337.531C99.0868 338.175 98.9557 338.81 98.755 339.425C98.37 340.945 97.8101 342.415 97.0866 343.807C96.3656 345.229 95.2687 346.428 93.915 347.271C93.5014 347.518 93.0529 347.7 92.5847 347.812C92.4159 347.871 92.2357 347.889 92.0586 347.865C92.6515 347.637 93.2246 347.36 93.7722 347.038C95.0383 346.161 96.0704 344.987 96.7784 343.619C97.4715 342.246 98.0424 340.815 98.4845 339.342C98.6519 338.72 98.8732 338.114 99.1459 337.531Z" fill="#EB996E"/>
    <path d="M107.127 334.908C107.013 335.539 106.819 336.153 106.548 336.734C105.983 338.173 105.325 339.574 104.579 340.928C103.831 342.282 102.998 343.588 102.084 344.836C101.737 345.387 101.323 345.892 100.852 346.339C101.141 345.769 101.478 345.223 101.859 344.708C102.505 343.724 103.362 342.341 104.234 340.77C105.105 339.2 105.804 337.764 106.293 336.659C106.52 336.052 106.799 335.466 107.127 334.908Z" fill="#EB996E"/>
    <path d="M106.909 285.831C106.991 286.145 107.037 286.468 107.045 286.793C107.112 287.409 107.165 288.296 107.195 289.416C107.336 295.217 106.498 301 104.715 306.522C104.369 307.574 104.069 308.423 103.828 308.994C103.725 309.3 103.592 309.595 103.43 309.874C103.48 309.554 103.566 309.242 103.685 308.942C103.881 308.355 104.144 307.499 104.437 306.439C105.244 303.677 105.857 300.862 106.271 298.014C106.677 295.166 106.888 292.293 106.902 289.416C106.902 288.311 106.902 287.417 106.902 286.8C106.874 286.478 106.876 286.153 106.909 285.831Z" fill="#263238"/>
    <path d="M90.623 294.857C90.9886 295.625 91.3049 296.416 91.57 297.225C92.1262 298.728 92.9003 300.727 93.8247 302.944C94.7491 305.161 95.6059 307.153 96.2448 308.588C96.6211 309.351 96.9499 310.137 97.2293 310.941C96.7448 310.232 96.3319 309.477 95.9967 308.686C95.2903 307.273 94.3809 305.296 93.464 303.072C92.5471 300.847 91.818 298.795 91.3295 297.292C91.0196 296.504 90.7831 295.689 90.623 294.857Z" fill="#263238"/>
    <path d="M86.2565 314.315C86.105 314.38 85.9459 314.425 85.783 314.451L84.4077 314.781C83.8064 314.924 83.0774 315.089 82.2131 315.232C81.3488 315.375 80.3793 315.585 79.282 315.721C78.1847 315.856 77.0273 316.044 75.712 316.157C74.3968 316.269 73.0365 316.367 71.586 316.45C65.268 316.73 58.9394 316.248 52.7367 315.014C51.3163 314.706 49.9559 314.436 48.7083 314.09C47.4607 313.744 46.2958 313.443 45.2436 313.12C44.1914 312.797 43.2445 312.474 42.4177 312.196C41.591 311.918 40.9146 311.647 40.3209 311.444L39.0056 310.918C38.8505 310.859 38.6998 310.789 38.5547 310.708C38.7204 310.731 38.8822 310.777 39.0357 310.843L40.3735 311.302C40.9447 311.512 41.6586 311.767 42.4854 312.053C43.3121 312.339 44.2591 312.639 45.3188 312.917C46.3785 313.195 47.5284 313.549 48.7835 313.834C50.0386 314.12 51.3839 314.428 52.8044 314.721C55.8948 315.298 59.0129 315.714 62.1463 315.969C65.2825 316.194 68.4284 316.254 71.5709 316.149C73.0215 316.074 74.3968 316.021 75.682 315.894C76.9672 315.766 78.1546 315.646 79.2444 315.51C80.3342 315.375 81.3112 315.21 82.1755 315.074C83.0398 314.939 83.7763 314.811 84.3776 314.691L85.768 314.436C85.9257 314.377 86.0896 314.336 86.2565 314.315Z" fill="#263238"/>
    <path d="M83.3924 301.245C82.1487 300.791 80.953 300.214 79.8225 299.524C78.6323 298.947 77.4998 298.257 76.4404 297.465C77.6864 297.914 78.8827 298.491 80.0104 299.186C81.2036 299.758 82.3365 300.448 83.3924 301.245Z" fill="#263238"/>
    <path d="M191.017 230.193L190.829 230.253L190.273 230.403L188.124 230.952L180.037 232.951L152.078 239.715L151.876 239.76V239.557C151.086 234.394 150.004 228.825 148.959 223.023C148.276 219.152 147.682 215.357 147.276 211.674C146.87 207.991 146.69 204.406 146.637 200.994C146.554 197.765 146.743 194.534 147.201 191.337C147.608 188.539 148.439 185.82 149.666 183.272C150.716 181.185 152.119 179.296 153.815 177.688C155.09 176.473 156.555 175.473 158.151 174.727C159.166 174.273 160.231 173.938 161.323 173.728L162.179 173.622C162.277 173.612 162.375 173.612 162.473 173.622C162.377 173.653 162.279 173.674 162.179 173.682L161.338 173.833C160.262 174.065 159.215 174.418 158.219 174.885C156.651 175.656 155.215 176.671 153.965 177.891C152.309 179.496 150.939 181.372 149.914 183.438C148.721 185.966 147.916 188.659 147.524 191.427C147.083 194.611 146.907 197.826 146.998 201.039C147.058 204.436 147.253 207.999 147.659 211.674C148.065 215.349 148.666 219.137 149.35 223C150.387 228.795 151.462 234.371 152.251 239.535L152.018 239.377L180.014 232.725L188.124 230.831L190.288 230.343L190.852 230.223C190.906 230.207 190.961 230.197 191.017 230.193Z" fill="#263238"/>
</svg>
